WIPSHDC-New-Simplified-Sans-Heavy.ufo
<glyph name="uni4E1C" format="2">
  <advance width="1000"/>
  <unicode hex="4E1C"/>
  <note>
cid09521
</note>
  <outline>
    <contour>
      <point x="467" y="838" type="curve"/>
      <point x="307" y="855" type="line"/>
      <point x="249" y="664"/>
      <point x="176" y="455"/>
      <point x="116" y="311" type="curve"/>
      <point x="276" y="283" type="line"/>
      <point x="333" y="424"/>
      <point x="407" y="638"/>
    </contour>
    <contour>
      <point x="596" y="551" type="line"/>
      <point x="448" y="551" type="line"/>
      <point x="448" y="69" type="line" smooth="yes"/>
      <point x="448" y="55"/>
      <point x="443" y="51"/>
      <point x="426" y="51" type="curve" smooth="yes"/>
      <point x="409" y="51"/>
      <point x="353" y="51"/>
      <point x="305" y="53" type="curve"/>
      <point x="326" y="13"/>
      <point x="351" y="-53"/>
      <point x="358" y="-95" type="curve"/>
      <point x="432" y="-95"/>
      <point x="492" y="-91"/>
      <point x="537" y="-67" type="curve" smooth="yes"/>
      <point x="582" y="-43"/>
      <point x="596" y="-4"/>
      <point x="596" y="66" type="curve" smooth="yes"/>
    </contour>
    <contour>
      <point x="364" y="220" type="curve"/>
      <point x="218" y="260" type="line"/>
      <point x="185" y="177"/>
      <point x="120" y="91"/>
      <point x="50" y="37" type="curve"/>
      <point x="85" y="16"/>
      <point x="145" y="-30"/>
      <point x="173" y="-56" type="curve"/>
      <point x="246" y="10"/>
      <point x="320" y="117"/>
    </contour>
    <contour>
      <point x="786" y="260" type="curve"/>
      <point x="662" y="202" type="line"/>
      <point x="727" y="124"/>
      <point x="806" y="16"/>
      <point x="839" y="-52" type="curve"/>
      <point x="973" y="15" type="line"/>
      <point x="935" y="85"/>
      <point x="851" y="187"/>
    </contour>
    <contour>
      <point x="937" y="730" type="line"/>
      <point x="63" y="730" type="line"/>
      <point x="63" y="591" type="line"/>
      <point x="937" y="591" type="line"/>
    </contour>
    <contour>
      <point x="871" y="451" type="line"/>
      <point x="257" y="451" type="line"/>
      <point x="257" y="310" type="line"/>
      <point x="871" y="310" type="line"/>
    </contour>
  </outline>
</glyph>
<glyph name="uni4E50" format="2">
  <advance width="1000"/>
  <unicode hex="4E50"/>
  <note>
cid09589
</note>
  <outline>
    <contour>
      <point x="911" y="732" type="curve"/>
      <point x="818" y="853" type="line"/>
      <point x="678" y="821"/>
      <point x="436" y="794"/>
      <point x="191" y="783" type="curve"/>
      <point x="207" y="750"/>
      <point x="225" y="693"/>
      <point x="227" y="658" type="curve"/>
      <point x="473" y="664"/>
      <point x="737" y="693"/>
    </contour>
    <contour>
      <point x="306" y="787" type="curve"/>
      <point x="161" y="802" type="line"/>
      <point x="134" y="633"/>
      <point x="97" y="445"/>
      <point x="64" y="314" type="curve"/>
      <point x="211" y="297" type="line"/>
      <point x="242" y="428"/>
      <point x="279" y="617"/>
    </contour>
    <contour>
      <point x="928" y="474" type="line"/>
      <point x="209" y="474" type="line"/>
      <point x="173" y="328" type="line"/>
      <point x="928" y="328" type="line"/>
    </contour>
    <contour>
      <point x="598" y="626" type="line"/>
      <point x="447" y="626" type="line"/>
      <point x="447" y="72" type="line" smooth="yes"/>
      <point x="447" y="56"/>
      <point x="441" y="52"/>
      <point x="423" y="52" type="curve" smooth="yes"/>
      <point x="404" y="52"/>
      <point x="342" y="52"/>
      <point x="291" y="54" type="curve"/>
      <point x="312" y="13"/>
      <point x="334" y="-53"/>
      <point x="340" y="-95" type="curve"/>
      <point x="424" y="-96"/>
      <point x="489" y="-92"/>
      <point x="537" y="-69" type="curve" smooth="yes"/>
      <point x="584" y="-46"/>
      <point x="598" y="-6"/>
      <point x="598" y="69" type="curve" smooth="yes"/>
    </contour>
    <contour>
      <point x="347" y="235" type="curve"/>
      <point x="206" y="283" type="line"/>
      <point x="162" y="201"/>
      <point x="89" y="108"/>
      <point x="24" y="50" type="curve"/>
      <point x="58" y="30"/>
      <point x="118" y="-13"/>
      <point x="146" y="-39" type="curve"/>
      <point x="209" y="29"/>
      <point x="292" y="140"/>
    </contour>
    <contour>
      <point x="800" y="281" type="curve"/>
      <point x="671" y="229" type="line"/>
      <point x="730" y="146"/>
      <point x="803" y="32"/>
      <point x="833" y="-38" type="curve"/>
      <point x="972" y="24" type="line"/>
      <point x="937" y="96"/>
      <point x="858" y="203"/>
    </contour>
  </outline>
</glyph>
<glyph name="uni4EE4" format="2">
  <advance width="1000" height="1000"/>
  <unicode hex="4EE4"/>
  <note>
cid09833
</note>
  <outline>
    <contour>
      <point x="496" y="712" type="curve"/>
      <point x="580" y="600"/>
      <point x="742" y="460"/>
      <point x="891" y="375" type="curve"/>
      <point x="919" y="419"/>
      <point x="952" y="468"/>
      <point x="989" y="505" type="curve"/>
      <point x="831" y="572"/>
      <point x="675" y="702"/>
      <point x="565" y="856" type="curve"/>
      <point x="415" y="856" type="line"/>
      <point x="342" y="736"/>
      <point x="182" y="581"/>
      <point x="14" y="494" type="curve"/>
      <point x="46" y="464"/>
      <point x="89" y="410"/>
      <point x="108" y="376" type="curve"/>
      <point x="267" y="468"/>
      <point x="412" y="597"/>
    </contour>
    <contour>
      <point x="363" y="202" type="curve"/>
      <point x="266" y="100" type="line"/>
      <point x="406" y="38"/>
      <point x="560" y="-46"/>
      <point x="639" y="-103" type="curve"/>
      <point x="744" y="15" type="line"/>
      <point x="659" y="70"/>
      <point x="501" y="147"/>
    </contour>
    <contour>
      <point x="755" y="245" type="line"/>
      <point x="755" y="376" type="line"/>
      <point x="153" y="376" type="line"/>
      <point x="153" y="245" type="line"/>
    </contour>
    <contour>
      <point x="772" y="382" type="line"/>
      <point x="748" y="376" type="line"/>
      <point x="722" y="376" type="line"/>
      <point x="722" y="362" type="line"/>
      <point x="645" y="283"/>
      <point x="530" y="178"/>
      <point x="425" y="88" type="curve"/>
      <point x="547" y="5" type="line"/>
      <point x="640" y="84"/>
      <point x="764" y="198"/>
      <point x="868" y="301" type="curve"/>
    </contour>
    <contour>
      <point x="455" y="603" type="curve"/>
      <point x="362" y="507" type="line"/>
      <point x="430" y="471"/>
      <point x="507" y="420"/>
      <point x="548" y="383" type="curve"/>
      <point x="649" y="488" type="line"/>
      <point x="603" y="524"/>
      <point x="523" y="572"/>
    </contour>
  </outline>
</glyph>
<glyph name="uni4FE1" format="2">
  <advance width="1000" height="1000"/>
  <unicode hex="4FE1"/>
  <note>
cid10219
</note>
  <outline>
    <contour>
      <point x="722" y="679" type="line"/>
      <point x="722" y="845" type="line"/>
      <point x="578" y="845" type="line"/>
      <point x="578" y="679" type="line"/>
    </contour>
    <contour>
      <point x="912" y="438" type="line"/>
      <point x="912" y="555" type="line"/>
      <point x="416" y="555" type="line"/>
      <point x="416" y="438" type="line"/>
    </contour>
    <contour>
      <point x="907" y="286" type="line"/>
      <point x="907" y="403" type="line"/>
      <point x="416" y="403" type="line"/>
      <point x="416" y="286" type="line"/>
    </contour>
    <contour>
      <point x="853" y="-59" type="line"/>
      <point x="853" y="58" type="line"/>
      <point x="474" y="58" type="line"/>
      <point x="474" y="-59" type="line"/>
    </contour>
    <contour>
      <point x="978" y="590" type="line"/>
      <point x="978" y="710" type="line"/>
      <point x="338" y="710" type="line"/>
      <point x="338" y="590" type="line"/>
    </contour>
    <contour>
      <point x="929" y="-91" type="line"/>
      <point x="929" y="249" type="line"/>
      <point x="397" y="249" type="line"/>
      <point x="397" y="-94" type="line"/>
      <point x="536" y="-94" type="line"/>
      <point x="536" y="134" type="line"/>
      <point x="782" y="134" type="line"/>
      <point x="782" y="-91" type="line"/>
    </contour>
    <contour>
      <point x="377" y="809" type="curve"/>
      <point x="242" y="853" type="line"/>
      <point x="190" y="715"/>
      <point x="100" y="577"/>
      <point x="8" y="491" type="curve"/>
      <point x="32" y="455"/>
      <point x="70" y="374"/>
      <point x="83" y="339" type="curve"/>
      <point x="197" y="453"/>
      <point x="309" y="639"/>
    </contour>
    <contour>
      <point x="150" y="566" type="line"/>
      <point x="150" y="-92" type="line"/>
      <point x="288" y="-92" type="line"/>
      <point x="288" y="703" type="line"/>
      <point x="288" y="704" type="line"/>
    </contour>
  </outline>
</glyph>
<glyph name="uni5199" format="2">
  <advance width="1000" height="1000"/>
  <unicode hex="5199"/>
  <note>
cid10998
</note>
  <outline>
    <contour>
      <point x="947" y="556" type="line"/>
      <point x="947" y="813" type="line"/>
      <point x="58" y="813" type="line"/>
      <point x="58" y="556" type="line"/>
      <point x="203" y="556" type="line"/>
      <point x="203" y="679" type="line"/>
      <point x="794" y="679" type="line"/>
      <point x="794" y="556" type="line"/>
    </contour>
    <contour>
      <point x="764" y="472" type="line"/>
      <point x="764" y="596" type="line"/>
      <point x="339" y="596" type="line"/>
      <point x="339" y="472" type="line"/>
    </contour>
    <contour>
      <point x="754" y="301" type="line"/>
      <point x="754" y="427" type="line"/>
      <point x="319" y="427" type="line"/>
      <point x="319" y="301" type="line"/>
    </contour>
    <contour>
      <point x="633" y="111" type="line"/>
      <point x="633" y="244" type="line"/>
      <point x="86" y="244" type="line"/>
      <point x="86" y="111" type="line"/>
    </contour>
    <contour>
      <point x="861" y="427" type="curve"/>
      <point x="715" y="427" type="line"/>
      <point x="714" y="406" type="line" smooth="yes"/>
      <point x="699" y="183"/>
      <point x="678" y="73"/>
      <point x="648" y="49" type="curve" smooth="yes"/>
      <point x="634" y="38"/>
      <point x="620" y="36"/>
      <point x="599" y="36" type="curve" smooth="yes"/>
      <point x="570" y="36"/>
      <point x="503" y="36"/>
      <point x="439" y="42" type="curve"/>
      <point x="466" y="4"/>
      <point x="486" y="-54"/>
      <point x="488" y="-95" type="curve"/>
      <point x="552" y="-97"/>
      <point x="616" y="-97"/>
      <point x="655" y="-93" type="curve" smooth="yes"/>
      <point x="704" y="-88"/>
      <point x="738" y="-77"/>
      <point x="770" y="-42" type="curve" smooth="yes"/>
      <point x="812" y="2"/>
      <point x="836" y="113"/>
      <point x="856" y="368" type="curve"/>
      <point x="859" y="387"/>
      <point x="861" y="427"/>
    </contour>
    <contour>
      <point x="421" y="658" type="curve"/>
      <point x="276" y="671" type="line"/>
      <point x="259" y="552"/>
      <point x="227" y="393"/>
      <point x="200" y="285" type="curve"/>
      <point x="348" y="275" type="line"/>
      <point x="372" y="380"/>
      <point x="402" y="538"/>
    </contour>
  </outline>
</glyph>
<glyph name="uni519B" format="2">
  <advance width="1000"/>
  <unicode hex="519B"/>
  <note>
cid10976
</note>
  <outline>
    <contour>
      <point x="939" y="579" type="line"/>
      <point x="939" y="823" type="line"/>
      <point x="61" y="823" type="line"/>
      <point x="61" y="579" type="line"/>
      <point x="201" y="579" type="line"/>
      <point x="201" y="698" type="line"/>
      <point x="792" y="698" type="line"/>
      <point x="792" y="579" type="line"/>
    </contour>
    <contour>
      <point x="829" y="476" type="line"/>
      <point x="829" y="599" type="line"/>
      <point x="169" y="599" type="line"/>
      <point x="169" y="476" type="line"/>
    </contour>
    <contour>
      <point x="937" y="36" type="line"/>
      <point x="937" y="168" type="line"/>
      <point x="66" y="168" type="line"/>
      <point x="66" y="36" type="line"/>
    </contour>
    <contour>
      <point x="592" y="-94" type="line"/>
      <point x="592" y="446" type="line"/>
      <point x="446" y="446" type="line"/>
      <point x="446" y="-94" type="line"/>
    </contour>
    <contour>
      <point x="850" y="249" type="line"/>
      <point x="850" y="375" type="line"/>
      <point x="280" y="375" type="line"/>
      <point x="280" y="249" type="line"/>
    </contour>
    <contour>
      <point x="465" y="669" type="curve"/>
      <point x="317" y="685" type="line"/>
      <point x="268" y="523"/>
      <point x="209" y="350"/>
      <point x="162" y="237" type="curve"/>
      <point x="310" y="211" type="line"/>
      <point x="352" y="317"/>
      <point x="412" y="494"/>
    </contour>
  </outline>
</glyph>
<glyph name="uni519C" format="2">
  <advance width="1000"/>
  <unicode hex="519C"/>
  <note>
cid10977
</note>
  <outline>
    <contour>
      <point x="943" y="500" type="line"/>
      <point x="943" y="731" type="line"/>
      <point x="74" y="731" type="line"/>
      <point x="74" y="500" type="line"/>
      <point x="218" y="500" type="line"/>
      <point x="218" y="597" type="line"/>
      <point x="791" y="597" type="line"/>
      <point x="791" y="500" type="line"/>
    </contour>
    <contour>
      <point x="599" y="839" type="curve"/>
      <point x="448" y="855" type="line"/>
      <point x="411" y="606"/>
      <point x="244" y="394"/>
      <point x="14" y="303" type="curve"/>
      <point x="46" y="275"/>
      <point x="100" y="215"/>
      <point x="121" y="184" type="curve"/>
      <point x="368" y="301"/>
      <point x="552" y="554"/>
    </contour>
    <contour>
      <point x="617" y="635" type="curve"/>
      <point x="472" y="609" type="line"/>
      <point x="516" y="322"/>
      <point x="586" y="101"/>
      <point x="884" y="-92" type="curve"/>
      <point x="903" y="-45"/>
      <point x="951" y="11"/>
      <point x="990" y="42" type="curve"/>
      <point x="721" y="188"/>
      <point x="654" y="377"/>
    </contour>
    <contour>
      <point x="918" y="395" type="curve"/>
      <point x="802" y="492" type="line"/>
      <point x="750" y="436"/>
      <point x="664" y="368"/>
      <point x="602" y="330" type="curve"/>
      <point x="705" y="238" type="line"/>
      <point x="767" y="276"/>
      <point x="852" y="337"/>
    </contour>
    <contour>
      <point x="95" y="61" type="curve"/>
      <point x="137" y="-88" type="line"/>
      <point x="273" y="-61"/>
      <point x="453" y="-27"/>
      <point x="618" y="8" type="curve"/>
      <point x="605" y="151" type="line"/>
      <point x="426" y="117"/>
      <point x="228" y="80"/>
    </contour>
    <contour>
      <point x="380" y="414" type="line"/>
      <point x="351" y="424" type="line"/>
      <point x="232" y="305" type="line"/>
      <point x="232" y="31" type="line"/>
      <point x="380" y="31" type="line"/>
    </contour>
  </outline>
</glyph>
<glyph name="uni5355" format="2">
  <advance width="1000" height="1000"/>
  <unicode hex="5355"/>
  <note>
cid11702
</note>
  <outline>
    <contour>
      <point x="573" y="-94" type="line"/>
      <point x="573" y="613" type="line"/>
      <point x="423" y="613" type="line"/>
      <point x="423" y="-94" type="line"/>
    </contour>
    <contour>
      <point x="731" y="363" type="line"/>
      <point x="272" y="363" type="line"/>
      <point x="272" y="410" type="line"/>
      <point x="731" y="410" type="line"/>
    </contour>
    <contour>
      <point x="731" y="519" type="line"/>
      <point x="272" y="519" type="line"/>
      <point x="272" y="564" type="line"/>
      <point x="731" y="564" type="line"/>
    </contour>
    <contour>
      <point x="881" y="246" type="line"/>
      <point x="881" y="682" type="line"/>
      <point x="130" y="682" type="line"/>
      <point x="130" y="246" type="line"/>
    </contour>
    <contour>
      <point x="958" y="62" type="line"/>
      <point x="958" y="196" type="line"/>
      <point x="44" y="196" type="line"/>
      <point x="44" y="62" type="line"/>
    </contour>
    <contour>
      <point x="334" y="852" type="curve"/>
      <point x="203" y="803" type="line"/>
      <point x="235" y="754"/>
      <point x="268" y="685"/>
      <point x="279" y="641" type="curve"/>
      <point x="416" y="698" type="line"/>
      <point x="402" y="742"/>
      <point x="368" y="805"/>
    </contour>
    <contour>
      <point x="833" y="812" type="curve"/>
      <point x="669" y="854" type="line"/>
      <point x="652" y="804"/>
      <point x="622" y="738"/>
      <point x="594" y="694" type="curve"/>
      <point x="729" y="654" type="line"/>
      <point x="760" y="695"/>
      <point x="800" y="756"/>
    </contour>
  </outline>
</glyph>
<glyph name="uni53CD" format="2">
  <advance width="1000" height="1000"/>
  <unicode hex="53CD"/>
  <note>
cid11891
</note>
  <outline>
    <contour>
      <point x="760" y="406" type="line"/>
      <point x="760" y="546" type="line"/>
      <point x="237" y="546" type="line"/>
      <point x="237" y="406" type="line"/>
    </contour>
    <contour>
      <point x="778" y="552" type="line"/>
      <point x="751" y="546" type="line"/>
      <point x="723" y="546" type="line"/>
      <point x="723" y="520" type="line"/>
      <point x="667" y="266"/>
      <point x="487" y="103"/>
      <point x="228" y="39" type="curve"/>
      <point x="258" y="7"/>
      <point x="295" y="-55"/>
      <point x="313" y="-95" type="curve"/>
      <point x="606" y="-2"/>
      <point x="803" y="173"/>
      <point x="881" y="511" type="curve"/>
    </contour>
    <contour>
      <point x="443" y="465" type="curve"/>
      <point x="303" y="426" type="line"/>
      <point x="406" y="154"/>
      <point x="565" y="-18"/>
      <point x="866" y="-95" type="curve"/>
      <point x="887" y="-54"/>
      <point x="930" y="10"/>
      <point x="964" y="42" type="curve"/>
      <point x="685" y="100"/>
      <point x="520" y="248"/>
    </contour>
    <contour>
      <point x="328" y="751" type="curve"/>
      <point x="149" y="784" type="line"/>
      <point x="149" y="509" type="line" smooth="yes"/>
      <point x="149" y="358"/>
      <point x="138" y="147"/>
      <point x="15" y="1" type="curve"/>
      <point x="51" y="-16"/>
      <point x="110" y="-66"/>
      <point x="131" y="-98" type="curve"/>
      <point x="278" y="71"/>
      <point x="297" y="342"/>
      <point x="297" y="508" type="curve" smooth="yes"/>
      <point x="297" y="729" type="line"/>
      <point x="318" y="733"/>
      <point x="327" y="739"/>
    </contour>
    <contour>
      <point x="883" y="736" type="curve"/>
      <point x="757" y="858" type="line"/>
      <point x="612" y="814"/>
      <point x="385" y="778"/>
      <point x="176" y="759" type="curve"/>
      <point x="192" y="727"/>
      <point x="213" y="666"/>
      <point x="218" y="629" type="curve"/>
      <point x="435" y="647"/>
      <point x="684" y="680"/>
    </contour>
  </outline>
</glyph>
<glyph name="uni5988" format="2">
  <advance width="1000"/>
  <unicode hex="5988"/>
  <note>
cid14249
</note>
  <outline>
    <contour>
      <point x="330" y="527" type="line"/>
      <point x="330" y="660" type="line"/>
      <point x="28" y="660" type="line"/>
      <point x="28" y="527" type="line"/>
    </contour>
    <contour>
      <point x="273" y="842" type="curve"/>
      <point x="135" y="855" type="line"/>
      <point x="111" y="654"/>
      <point x="67" y="399"/>
      <point x="29" y="241" type="curve"/>
      <point x="144" y="172" type="line"/>
      <point x="189" y="361"/>
      <point x="239" y="624"/>
    </contour>
    <contour>
      <point x="167" y="358" type="curve"/>
      <point x="80" y="262" type="line"/>
      <point x="171" y="177"/>
      <point x="268" y="57"/>
      <point x="314" y="-28" type="curve"/>
      <point x="411" y="83" type="line"/>
      <point x="363" y="161"/>
      <point x="262" y="275"/>
    </contour>
    <contour>
      <point x="327" y="662" type="line"/>
      <point x="303" y="660" type="line"/>
      <point x="279" y="660" type="line"/>
      <point x="279" y="635" type="line" smooth="yes"/>
      <point x="268" y="325"/>
      <point x="197" y="104"/>
      <point x="30" y="20" type="curve"/>
      <point x="59" y="-7"/>
      <point x="94" y="-60"/>
      <point x="113" y="-96" type="curve"/>
      <point x="317" y="29"/>
      <point x="396" y="251"/>
      <point x="411" y="653" type="curve"/>
    </contour>
    <contour>
      <point x="955" y="424" type="curve"/>
      <point x="816" y="424" type="line"/>
      <point x="816" y="402" type="line"/>
      <point x="802" y="167"/>
      <point x="781" y="70"/>
      <point x="759" y="47" type="curve" smooth="yes"/>
      <point x="748" y="35"/>
      <point x="738" y="33"/>
      <point x="723" y="33" type="curve" smooth="yes"/>
      <point x="704" y="33"/>
      <point x="669" y="33"/>
      <point x="631" y="37" type="curve"/>
      <point x="652" y="2"/>
      <point x="667" y="-53"/>
      <point x="669" y="-92" type="curve"/>
      <point x="717" y="-93"/>
      <point x="761" y="-92"/>
      <point x="790" y="-88" type="curve" smooth="yes"/>
      <point x="824" y="-83"/>
      <point x="850" y="-72"/>
      <point x="876" y="-41" type="curve" smooth="yes"/>
      <point x="911" y="-2"/>
      <point x="932" y="108"/>
      <point x="951" y="369" type="curve" smooth="yes"/>
      <point x="953" y="386"/>
      <point x="955" y="424"/>
    </contour>
    <contour>
      <point x="803" y="678" type="line"/>
      <point x="803" y="808" type="line"/>
      <point x="411" y="808" type="line"/>
      <point x="411" y="678" type="line"/>
    </contour>
    <contour>
      <point x="857" y="298" type="line"/>
      <point x="857" y="424" type="line"/>
      <point x="460" y="424" type="line"/>
      <point x="460" y="298" type="line"/>
    </contour>
    <contour>
      <point x="764" y="98" type="line"/>
      <point x="764" y="226" type="line"/>
      <point x="392" y="226" type="line"/>
      <point x="392" y="98" type="line"/>
    </contour>
    <contour>
      <point x="785" y="813" type="line"/>
      <point x="763" y="808" type="line"/>
      <point x="748" y="808" type="line"/>
      <point x="748" y="794" type="line" smooth="yes"/>
      <point x="742" y="689"/>
      <point x="724" y="495"/>
      <point x="704" y="347" type="curve"/>
      <point x="841" y="336" type="line"/>
      <point x="860" y="483"/>
      <point x="879" y="660"/>
      <point x="888" y="804" type="curve"/>
    </contour>
    <contour>
      <point x="595" y="640" type="curve"/>
      <point x="460" y="650" type="line"/>
      <point x="450" y="529"/>
      <point x="434" y="385"/>
      <point x="418" y="278" type="curve"/>
      <point x="553" y="264" type="line"/>
      <point x="568" y="370"/>
      <point x="584" y="515"/>
    </contour>
  </outline>
</glyph>
<glyph name="uni5C81" format="2">
  <advance width="1000"/>
  <unicode hex="5C81"/>
  <note>
cid15921
</note>
  <outline>
    <contour>
      <point x="315" y="362" type="curve"/>
      <point x="200" y="289" type="line"/>
      <point x="287" y="225"/>
      <point x="381" y="137"/>
      <point x="426" y="75" type="curve"/>
      <point x="547" y="156" type="line"/>
      <point x="497" y="218"/>
      <point x="402" y="303"/>
    </contour>
    <contour>
      <point x="733" y="332" type="line"/>
      <point x="733" y="466" type="line"/>
      <point x="274" y="466" type="line"/>
      <point x="274" y="332" type="line"/>
    </contour>
    <contour>
      <point x="535" y="544" type="curve"/>
      <point x="383" y="596" type="line"/>
      <point x="326" y="490"/>
      <point x="197" y="390"/>
      <point x="50" y="338" type="curve"/>
      <point x="79" y="310"/>
      <point x="123" y="255"/>
      <point x="145" y="221" type="curve"/>
      <point x="301" y="281"/>
      <point x="451" y="406"/>
    </contour>
    <contour>
      <point x="740" y="471" type="line"/>
      <point x="714" y="466" type="line"/>
      <point x="684" y="466" type="line"/>
      <point x="684" y="441" type="line"/>
      <point x="605" y="229"/>
      <point x="393" y="85"/>
      <point x="93" y="39" type="curve"/>
      <point x="123" y="8"/>
      <point x="165" y="-59"/>
      <point x="180" y="-97" type="curve"/>
      <point x="498" y="-32"/>
      <point x="736" y="150"/>
      <point x="843" y="410" type="curve"/>
    </contour>
    <contour>
      <point x="257" y="677" type="line"/>
      <point x="257" y="815" type="line"/>
      <point x="110" y="815" type="line"/>
      <point x="110" y="540" type="line"/>
      <point x="893" y="540" type="line"/>
      <point x="893" y="815" type="line"/>
      <point x="739" y="815" type="line"/>
      <point x="739" y="677" type="line"/>
    </contour>
    <contour>
      <point x="573" y="596" type="line"/>
      <point x="573" y="855" type="line"/>
      <point x="423" y="855" type="line"/>
      <point x="423" y="596" type="line"/>
    </contour>
  </outline>
</glyph>
<glyph name="uni65B0" format="2">
  <advance width="1000" height="1000"/>
  <unicode hex="65B0"/>
  <note>
cid20118
</note>
  <outline>
    <contour>
      <point x="974" y="394" type="line"/>
      <point x="974" y="528" type="line"/>
      <point x="600" y="528" type="line"/>
      <point x="600" y="394" type="line"/>
    </contour>
    <contour>
      <point x="504" y="642" type="line"/>
      <point x="504" y="759" type="line"/>
      <point x="49" y="759" type="line"/>
      <point x="49" y="642" type="line"/>
    </contour>
    <contour>
      <point x="500" y="239" type="line"/>
      <point x="500" y="360" type="line"/>
      <point x="40" y="360" type="line"/>
      <point x="40" y="239" type="line"/>
    </contour>
    <contour>
      <point x="510" y="421" type="line"/>
      <point x="510" y="539" type="line"/>
      <point x="37" y="539" type="line"/>
      <point x="37" y="421" type="line"/>
    </contour>
    <contour>
      <point x="889" y="-90" type="line"/>
      <point x="889" y="468" type="line"/>
      <point x="748" y="468" type="line"/>
      <point x="748" y="-90" type="line"/>
    </contour>
    <contour>
      <point x="347" y="709" type="line"/>
      <point x="347" y="844" type="line"/>
      <point x="206" y="844" type="line"/>
      <point x="206" y="709" type="line"/>
    </contour>
    <contour>
      <point x="704" y="734" type="curve"/>
      <point x="536" y="778" type="line"/>
      <point x="536" y="424" type="line" smooth="yes"/>
      <point x="536" y="292"/>
      <point x="529" y="119"/>
      <point x="455" y="-6" type="curve"/>
      <point x="490" y="-24"/>
      <point x="538" y="-63"/>
      <point x="564" y="-96" type="curve"/>
      <point x="662" y="51"/>
      <point x="674" y="278"/>
      <point x="674" y="422" type="curve" smooth="yes"/>
      <point x="674" y="715" type="line"/>
      <point x="696" y="718"/>
      <point x="703" y="724"/>
    </contour>
    <contour>
      <point x="974" y="740" type="curve"/>
      <point x="858" y="845" type="line"/>
      <point x="788" y="808"/>
      <point x="678" y="770"/>
      <point x="575" y="747" type="curve"/>
      <point x="591" y="718"/>
      <point x="612" y="668"/>
      <point x="619" y="637" type="curve"/>
      <point x="734" y="659"/>
      <point x="868" y="693"/>
    </contour>
    <contour>
      <point x="204" y="656" type="curve"/>
      <point x="93" y="629" type="line"/>
      <point x="107" y="595"/>
      <point x="119" y="549"/>
      <point x="120" y="519" type="curve"/>
      <point x="237" y="551" type="line"/>
      <point x="233" y="580"/>
      <point x="220" y="624"/>
    </contour>
    <contour>
      <point x="466" y="634" type="curve"/>
      <point x="338" y="658" type="line"/>
      <point x="331" y="626"/>
      <point x="316" y="581"/>
      <point x="304" y="550" type="curve"/>
      <point x="419" y="527" type="line"/>
      <point x="432" y="554"/>
      <point x="447" y="591"/>
    </contour>
    <contour>
      <point x="343" y="41" type="curve" smooth="yes"/>
      <point x="343" y="455" type="line"/>
      <point x="210" y="455" type="line"/>
      <point x="210" y="43" type="line" smooth="yes"/>
      <point x="210" y="32"/>
      <point x="206" y="28"/>
      <point x="194" y="28" type="curve" smooth="yes"/>
      <point x="181" y="28"/>
      <point x="144" y="28"/>
      <point x="111" y="29" type="curve"/>
      <point x="128" y="-6"/>
      <point x="146" y="-59"/>
      <point x="151" y="-96" type="curve"/>
      <point x="213" y="-96"/>
      <point x="260" y="-93"/>
      <point x="296" y="-72" type="curve" smooth="yes"/>
      <point x="333" y="-52"/>
      <point x="343" y="-19"/>
    </contour>
    <contour>
      <point x="445" y="227" type="curve"/>
      <point x="350" y="191" type="line"/>
      <point x="379" y="143"/>
      <point x="407" y="81"/>
      <point x="418" y="41" type="curve"/>
      <point x="519" y="84" type="line"/>
      <point x="506" y="123"/>
      <point x="476" y="182"/>
    </contour>
    <contour>
      <point x="203" y="195" type="curve"/>
      <point x="92" y="224" type="line"/>
      <point x="81" y="167"/>
      <point x="49" y="107"/>
      <point x="11" y="70" type="curve"/>
      <point x="37" y="55"/>
      <point x="82" y="22"/>
      <point x="103" y="3" type="curve"/>
      <point x="144" y="47"/>
      <point x="183" y="121"/>
    </contour>
  </outline>
</glyph>
<glyph name="uni6B21" format="2">
  <advance width="1000" height="1000"/>
  <unicode hex="6B21"/>
  <note>
cid62458
</note>
  <outline>
    <contour>
      <point x="21" y="88" type="curve"/>
      <point x="151" y="-11" type="line"/>
      <point x="212" y="85"/>
      <point x="270" y="187"/>
      <point x="324" y="289" type="curve"/>
      <point x="213" y="385" type="line"/>
      <point x="151" y="273"/>
      <point x="74" y="159"/>
    </contour>
    <contour>
      <point x="565" y="823" type="curve"/>
      <point x="414" y="850" type="line"/>
      <point x="385" y="691"/>
      <point x="324" y="536"/>
      <point x="238" y="446" type="curve"/>
      <point x="275" y="430"/>
      <point x="345" y="391"/>
      <point x="375" y="369" type="curve"/>
      <point x="457" y="473"/>
      <point x="527" y="643"/>
    </contour>
    <contour>
      <point x="686" y="453" type="curve" smooth="yes"/>
      <point x="686" y="501" type="line"/>
      <point x="531" y="501" type="line"/>
      <point x="531" y="452" type="line" smooth="yes"/>
      <point x="531" y="329"/>
      <point x="456" y="129"/>
      <point x="204" y="28" type="curve"/>
      <point x="229" y="2"/>
      <point x="275" y="-61"/>
      <point x="292" y="-95" type="curve"/>
      <point x="473" y="-15"/>
      <point x="582" y="140"/>
      <point x="609" y="228" type="curve"/>
      <point x="630" y="139"/>
      <point x="729" y="-21"/>
      <point x="891" y="-95" type="curve"/>
      <point x="914" y="-58"/>
      <point x="957" y="3"/>
      <point x="985" y="38" type="curve"/>
      <point x="752" y="140"/>
      <point x="686" y="332"/>
    </contour>
    <contour>
      <point x="868" y="541" type="line"/>
      <point x="868" y="686" type="line"/>
      <point x="480" y="686" type="line"/>
      <point x="407" y="541" type="line"/>
    </contour>
    <contour>
      <point x="869" y="694" type="line"/>
      <point x="841" y="686" type="line"/>
      <point x="820" y="686" type="line"/>
      <point x="820" y="655" type="line"/>
      <point x="806" y="575"/>
      <point x="765" y="469"/>
      <point x="735" y="409" type="curve"/>
      <point x="769" y="395"/>
      <point x="827" y="365"/>
      <point x="857" y="349" type="curve"/>
      <point x="898" y="424"/>
      <point x="947" y="526"/>
      <point x="977" y="630" type="curve"/>
    </contour>
    <contour>
      <point x="152" y="796" type="curve"/>
      <point x="49" y="688" type="line"/>
      <point x="108" y="645"/>
      <point x="186" y="581"/>
      <point x="219" y="537" type="curve"/>
      <point x="329" y="658" type="line"/>
      <point x="291" y="701"/>
      <point x="210" y="758"/>
    </contour>
  </outline>
</glyph>
<glyph name="uni6C47" format="2">
  <advance width="1000" height="1000"/>
  <unicode hex="6C47"/>
  <note>
cid23035
</note>
  <outline>
    <contour>
      <point x="959" y="809" type="line"/>
      <point x="385" y="809" type="line"/>
      <point x="385" y="-95" type="line"/>
      <point x="537" y="-95" type="line"/>
      <point x="537" y="667" type="line"/>
      <point x="959" y="667" type="line"/>
    </contour>
    <contour>
      <point x="976" y="93" type="line"/>
      <point x="452" y="93" type="line"/>
      <point x="452" y="-49" type="line"/>
      <point x="976" y="-49" type="line"/>
    </contour>
    <contour>
      <point x="177" y="849" type="curve"/>
      <point x="95" y="745" type="line"/>
      <point x="155" y="716"/>
      <point x="232" y="668"/>
      <point x="266" y="632" type="curve"/>
      <point x="354" y="747" type="line"/>
      <point x="315" y="782"/>
      <point x="236" y="824"/>
    </contour>
    <contour>
      <point x="99" y="584" type="curve"/>
      <point x="21" y="477" type="line"/>
      <point x="82" y="449"/>
      <point x="161" y="402"/>
      <point x="196" y="368" type="curve"/>
      <point x="280" y="486" type="line"/>
      <point x="240" y="519"/>
      <point x="159" y="560"/>
    </contour>
    <contour>
      <point x="64" y="14" type="curve"/>
      <point x="189" y="-81" type="line"/>
      <point x="248" y="20"/>
      <point x="306" y="130"/>
      <point x="357" y="238" type="curve"/>
      <point x="248" y="332" type="line"/>
      <point x="189" y="213"/>
      <point x="116" y="90"/>
    </contour>
  </outline>
</glyph>
<glyph name="uni7EA2" format="2">
  <advance width="1000" height="1000"/>
  <unicode hex="7EA2"/>
  <note>
cid31693
</note>
  <outline>
    <contour>
      <point x="945" y="777" type="line"/>
      <point x="434" y="777" type="line"/>
      <point x="434" y="631" type="line"/>
      <point x="945" y="631" type="line"/>
    </contour>
    <contour>
      <point x="966" y="88" type="line"/>
      <point x="413" y="88" type="line"/>
      <point x="413" y="-58" type="line"/>
      <point x="966" y="-58" type="line"/>
    </contour>
    <contour>
      <point x="767" y="727" type="line"/>
      <point x="610" y="727" type="line"/>
      <point x="610" y="5" type="line"/>
      <point x="767" y="5" type="line"/>
    </contour>
    <contour>
      <point x="303" y="803" type="curve"/>
      <point x="161" y="857" type="line"/>
      <point x="134" y="753"/>
      <point x="86" y="618"/>
      <point x="46" y="533" type="curve"/>
      <point x="160" y="486" type="line"/>
      <point x="206" y="571"/>
      <point x="261" y="693"/>
    </contour>
    <contour>
      <point x="11" y="551" type="curve"/>
      <point x="37" y="414" type="line"/>
      <point x="113" y="423"/>
      <point x="217" y="438"/>
      <point x="301" y="454" type="curve"/>
      <point x="295" y="581" type="line"/>
      <point x="199" y="569"/>
      <point x="88" y="558"/>
    </contour>
    <contour>
      <point x="422" y="596" type="curve"/>
      <point x="289" y="668" type="line"/>
      <point x="231" y="540"/>
      <point x="135" y="380"/>
      <point x="58" y="281" type="curve"/>
      <point x="169" y="216" type="line"/>
      <point x="251" y="316"/>
      <point x="348" y="462"/>
    </contour>
    <contour>
      <point x="21" y="310" type="curve"/>
      <point x="48" y="168" type="line"/>
      <point x="146" y="185"/>
      <point x="281" y="210"/>
      <point x="394" y="233" type="curve"/>
      <point x="383" y="364" type="line"/>
      <point x="258" y="343"/>
      <point x="117" y="323"/>
    </contour>
    <contour>
      <point x="18" y="84" type="curve"/>
      <point x="51" y="-64" type="line"/>
      <point x="150" y="-42"/>
      <point x="281" y="-9"/>
      <point x="392" y="20" type="curve"/>
      <point x="376" y="157" type="line"/>
      <point x="249" y="128"/>
      <point x="111" y="100"/>
    </contour>
  </outline>
</glyph>
<glyph name="uni7EA4" format="2">
  <advance width="1000" height="1000"/>
  <unicode hex="7EA4"/>
  <note>
cid31703
</note>
  <outline>
    <contour>
      <point x="954" y="727" type="curve"/>
      <point x="828" y="845" type="line"/>
      <point x="730" y="804"/>
      <point x="576" y="766"/>
      <point x="427" y="745" type="curve"/>
      <point x="444" y="712"/>
      <point x="465" y="655"/>
      <point x="471" y="621" type="curve"/>
      <point x="638" y="639"/>
      <point x="824" y="680"/>
    </contour>
    <contour>
      <point x="974" y="309" type="line"/>
      <point x="974" y="453" type="line"/>
      <point x="417" y="453" type="line"/>
      <point x="417" y="309" type="line"/>
    </contour>
    <contour>
      <point x="771" y="-94" type="line"/>
      <point x="771" y="766" type="line"/>
      <point x="623" y="766" type="line"/>
      <point x="623" y="-94" type="line"/>
    </contour>
    <contour>
      <point x="325" y="793" type="curve"/>
      <point x="184" y="855" type="line"/>
      <point x="151" y="749"/>
      <point x="97" y="619"/>
      <point x="54" y="541" type="curve"/>
      <point x="166" y="488" type="line"/>
      <point x="214" y="564"/>
      <point x="275" y="682"/>
    </contour>
    <contour>
      <point x="11" y="546" type="curve"/>
      <point x="38" y="408" type="line"/>
      <point x="114" y="416"/>
      <point x="214" y="430"/>
      <point x="298" y="445" type="curve"/>
      <point x="292" y="573" type="line"/>
      <point x="197" y="561"/>
      <point x="88" y="551"/>
    </contour>
    <contour>
      <point x="447" y="581" type="curve"/>
      <point x="318" y="660" type="line"/>
      <point x="253" y="536"/>
      <point x="150" y="382"/>
      <point x="69" y="288" type="curve"/>
      <point x="177" y="217" type="line"/>
      <point x="261" y="310"/>
      <point x="365" y="450"/>
    </contour>
    <contour>
      <point x="20" y="309" type="curve"/>
      <point x="45" y="167" type="line"/>
      <point x="149" y="182"/>
      <point x="291" y="204"/>
      <point x="412" y="224" type="curve"/>
      <point x="404" y="355" type="line"/>
      <point x="270" y="337"/>
      <point x="123" y="320"/>
    </contour>
    <contour>
      <point x="25" y="88" type="curve"/>
      <point x="49" y="-54" type="line"/>
      <point x="147" y="-38"/>
      <point x="289" y="-13"/>
      <point x="415" y="10" type="curve"/>
      <point x="406" y="142" type="line"/>
      <point x="271" y="121"/>
      <point x="124" y="100"/>
    </contour>
  </outline>
</glyph>
<glyph name="uni7EAC" format="2">
  <advance width="1000" height="1000"/>
  <unicode hex="7EAC"/>
  <note>
cid31711
</note>
  <outline>
    <contour>
      <point x="24" y="79" type="curve"/>
      <point x="49" y="-62" type="line"/>
      <point x="140" y="-38"/>
      <point x="270" y="-1"/>
      <point x="388" y="33" type="curve"/>
      <point x="374" y="155" type="line"/>
      <point x="243" y="124"/>
      <point x="108" y="95"/>
    </contour>
    <contour>
      <point x="931" y="596" type="line"/>
      <point x="931" y="730" type="line"/>
      <point x="399" y="730" type="line"/>
      <point x="399" y="596" type="line"/>
    </contour>
    <contour>
      <point x="909" y="412" type="line"/>
      <point x="909" y="546" type="line"/>
      <point x="418" y="546" type="line"/>
      <point x="418" y="412" type="line"/>
    </contour>
    <contour>
      <point x="963" y="360" type="curve"/>
      <point x="839" y="360" type="line"/>
      <point x="839" y="345" type="line" smooth="yes"/>
      <point x="831" y="197"/>
      <point x="822" y="143"/>
      <point x="807" y="125" type="curve" smooth="yes"/>
      <point x="802" y="119"/>
      <point x="793" y="116"/>
      <point x="781" y="116" type="curve" smooth="yes"/>
      <point x="770" y="116"/>
      <point x="753" y="116"/>
      <point x="731" y="118" type="curve"/>
      <point x="747" y="80"/>
      <point x="761" y="21"/>
      <point x="762" y="-15" type="curve"/>
      <point x="795" y="-15"/>
      <point x="828" y="-14"/>
      <point x="848" y="-10" type="curve" smooth="yes"/>
      <point x="872" y="-5"/>
      <point x="890" y="3"/>
      <point x="911" y="28" type="curve" smooth="yes"/>
      <point x="936" y="59"/>
      <point x="948" y="142"/>
      <point x="960" y="315" type="curve"/>
      <point x="962" y="328"/>
      <point x="963" y="360"/>
    </contour>
    <contour>
      <point x="870" y="225" type="line"/>
      <point x="870" y="360" type="line"/>
      <point x="388" y="360" type="line"/>
      <point x="388" y="225" type="line"/>
    </contour>
    <contour>
      <point x="729" y="-94" type="line"/>
      <point x="729" y="856" type="line"/>
      <point x="578" y="856" type="line"/>
      <point x="578" y="-94" type="line"/>
    </contour>
    <contour>
      <point x="291" y="807" type="curve"/>
      <point x="158" y="856" type="line"/>
      <point x="132" y="752"/>
      <point x="86" y="619"/>
      <point x="48" y="533" type="curve"/>
      <point x="154" y="491" type="line"/>
      <point x="198" y="575"/>
      <point x="250" y="697"/>
    </contour>
    <contour>
      <point x="11" y="549" type="curve"/>
      <point x="36" y="416" type="line"/>
      <point x="109" y="425"/>
      <point x="202" y="440"/>
      <point x="283" y="456" type="curve"/>
      <point x="281" y="579" type="line"/>
      <point x="189" y="567"/>
      <point x="85" y="556"/>
    </contour>
    <contour>
      <point x="402" y="586" type="curve"/>
      <point x="277" y="656" type="line"/>
      <point x="219" y="534"/>
      <point x="130" y="383"/>
      <point x="61" y="292" type="curve"/>
      <point x="166" y="229" type="line"/>
      <point x="239" y="322"/>
      <point x="330" y="459"/>
    </contour>
    <contour>
      <point x="16" y="308" type="curve"/>
      <point x="43" y="170" type="line"/>
      <point x="139" y="187"/>
      <point x="268" y="212"/>
      <point x="379" y="235" type="curve"/>
      <point x="368" y="362" type="line"/>
      <point x="246" y="341"/>
      <point x="110" y="321"/>
    </contour>
  </outline>
</glyph>
<glyph name="uni7EBA" format="2">
  <advance width="1000" height="1000"/>
  <unicode hex="7EBA"/>
  <note>
cid31725
</note>
  <outline>
    <contour>
      <point x="766" y="629" type="line"/>
      <point x="766" y="854" type="line"/>
      <point x="619" y="854" type="line"/>
      <point x="619" y="629" type="line"/>
    </contour>
    <contour>
      <point x="964" y="569" type="line"/>
      <point x="964" y="709" type="line"/>
      <point x="414" y="709" type="line"/>
      <point x="414" y="569" type="line"/>
    </contour>
    <contour>
      <point x="841" y="342" type="line"/>
      <point x="841" y="476" type="line"/>
      <point x="615" y="476" type="line"/>
      <point x="615" y="342" type="line"/>
    </contour>
    <contour>
      <point x="938" y="476" type="curve"/>
      <point x="796" y="476" type="line"/>
      <point x="796" y="452" type="line" smooth="yes"/>
      <point x="788" y="189"/>
      <point x="778" y="85"/>
      <point x="758" y="62" type="curve" smooth="yes"/>
      <point x="748" y="50"/>
      <point x="738" y="47"/>
      <point x="722" y="47" type="curve" smooth="yes"/>
      <point x="701" y="47"/>
      <point x="663" y="48"/>
      <point x="621" y="51" type="curve"/>
      <point x="645" y="13"/>
      <point x="662" y="-47"/>
      <point x="665" y="-89" type="curve"/>
      <point x="715" y="-90"/>
      <point x="763" y="-90"/>
      <point x="794" y="-84" type="curve" smooth="yes"/>
      <point x="830" y="-78"/>
      <point x="856" y="-66"/>
      <point x="882" y="-32" type="curve" smooth="yes"/>
      <point x="914" y="9"/>
      <point x="925" y="128"/>
      <point x="936" y="419" type="curve" smooth="yes"/>
      <point x="937" y="436"/>
      <point x="938" y="476"/>
    </contour>
    <contour>
      <point x="673" y="427" type="curve" smooth="yes"/>
      <point x="673" y="658" type="line"/>
      <point x="531" y="658" type="line"/>
      <point x="531" y="429" type="line" smooth="yes"/>
      <point x="531" y="297"/>
      <point x="510" y="133"/>
      <point x="356" y="-3" type="curve"/>
      <point x="393" y="-28"/>
      <point x="442" y="-69"/>
      <point x="469" y="-101" type="curve"/>
      <point x="644" y="51"/>
      <point x="673" y="254"/>
    </contour>
    <contour>
      <point x="301" y="804" type="curve"/>
      <point x="163" y="856" type="line"/>
      <point x="136" y="753"/>
      <point x="89" y="621"/>
      <point x="49" y="536" type="curve"/>
      <point x="159" y="491" type="line"/>
      <point x="205" y="574"/>
      <point x="259" y="695"/>
    </contour>
    <contour>
      <point x="11" y="549" type="curve"/>
      <point x="37" y="416" type="line"/>
      <point x="113" y="425"/>
      <point x="213" y="440"/>
      <point x="297" y="456" type="curve"/>
      <point x="291" y="579" type="line"/>
      <point x="196" y="567"/>
      <point x="88" y="556"/>
    </contour>
    <contour>
      <point x="416" y="596" type="curve"/>
      <point x="287" y="666" type="line"/>
      <point x="229" y="539"/>
      <point x="134" y="381"/>
      <point x="58" y="283" type="curve"/>
      <point x="166" y="220" type="line"/>
      <point x="247" y="319"/>
      <point x="343" y="464"/>
    </contour>
    <contour>
      <point x="21" y="308" type="curve"/>
      <point x="48" y="170" type="line"/>
      <point x="146" y="187"/>
      <point x="277" y="212"/>
      <point x="390" y="235" type="curve"/>
      <point x="379" y="362" type="line"/>
      <point x="255" y="341"/>
      <point x="117" y="321"/>
    </contour>
    <contour>
      <point x="17" y="89" type="curve"/>
      <point x="58" y="-56" type="line"/>
      <point x="152" y="-28"/>
      <point x="282" y="13"/>
      <point x="396" y="51" type="curve"/>
      <point x="378" y="179" type="line"/>
      <point x="245" y="144"/>
      <point x="106" y="109"/>
    </contour>
  </outline>
</glyph>
<glyph name="uni7EC7" format="2">
  <advance width="1000" height="1000"/>
  <unicode hex="7EC7"/>
  <note>
cid31738
</note>
  <outline>
    <contour>
      <point x="27" y="77" type="curve"/>
      <point x="53" y="-67" type="line"/>
      <point x="152" y="-41"/>
      <point x="277" y="-9"/>
      <point x="394" y="23" type="curve"/>
      <point x="380" y="148" type="line"/>
      <point x="251" y="120"/>
      <point x="116" y="92"/>
    </contour>
    <contour>
      <point x="795" y="388" type="line"/>
      <point x="570" y="388" type="line"/>
      <point x="570" y="662" type="line"/>
      <point x="795" y="662" type="line"/>
    </contour>
    <contour>
      <point x="937" y="247" type="line"/>
      <point x="937" y="802" type="line"/>
      <point x="435" y="802" type="line"/>
      <point x="435" y="247" type="line"/>
    </contour>
    <contour>
      <point x="828" y="242" type="curve"/>
      <point x="699" y="186" type="line"/>
      <point x="753" y="97"/>
      <point x="818" y="-22"/>
      <point x="843" y="-96" type="curve"/>
      <point x="982" y="-30" type="line"/>
      <point x="953" y="45"/>
      <point x="883" y="159"/>
    </contour>
    <contour>
      <point x="675" y="201" type="curve"/>
      <point x="525" y="240" type="line"/>
      <point x="491" y="146"/>
      <point x="425" y="51"/>
      <point x="352" y="-6" type="curve"/>
      <point x="388" y="-26"/>
      <point x="451" y="-71"/>
      <point x="480" y="-97" type="curve"/>
      <point x="553" y="-28"/>
      <point x="630" y="86"/>
    </contour>
    <contour>
      <point x="302" y="806" type="curve"/>
      <point x="163" y="856" type="line"/>
      <point x="136" y="750"/>
      <point x="89" y="614"/>
      <point x="49" y="526" type="curve"/>
      <point x="159" y="480" type="line"/>
      <point x="203" y="563"/>
      <point x="258" y="689"/>
    </contour>
    <contour>
      <point x="11" y="539" type="curve"/>
      <point x="37" y="406" type="line"/>
      <point x="113" y="415"/>
      <point x="213" y="430"/>
      <point x="297" y="446" type="curve"/>
      <point x="291" y="569" type="line"/>
      <point x="196" y="557"/>
      <point x="88" y="546"/>
    </contour>
    <contour>
      <point x="416" y="591" type="curve"/>
      <point x="287" y="661" type="line"/>
      <point x="229" y="534"/>
      <point x="134" y="376"/>
      <point x="58" y="278" type="curve"/>
      <point x="166" y="215" type="line"/>
      <point x="247" y="314"/>
      <point x="343" y="459"/>
    </contour>
    <contour>
      <point x="21" y="298" type="curve"/>
      <point x="48" y="160" type="line"/>
      <point x="146" y="177"/>
      <point x="277" y="202"/>
      <point x="390" y="225" type="curve"/>
      <point x="379" y="352" type="line"/>
      <point x="255" y="331"/>
      <point x="117" y="311"/>
    </contour>
  </outline>
</glyph>
<glyph name="uni7ECF" format="2">
  <advance width="1000" height="1000"/>
  <unicode hex="7ECF"/>
  <note>
cid31738
</note>
  <outline>
    <contour>
      <point x="301" y="804" type="curve"/>
      <point x="163" y="856" type="line"/>
      <point x="136" y="753"/>
      <point x="89" y="621"/>
      <point x="49" y="536" type="curve"/>
      <point x="159" y="491" type="line"/>
      <point x="205" y="574"/>
      <point x="259" y="695"/>
    </contour>
    <contour>
      <point x="11" y="549" type="curve"/>
      <point x="37" y="416" type="line"/>
      <point x="113" y="425"/>
      <point x="213" y="440"/>
      <point x="297" y="456" type="curve"/>
      <point x="291" y="579" type="line"/>
      <point x="196" y="567"/>
      <point x="88" y="556"/>
    </contour>
    <contour>
      <point x="416" y="596" type="curve"/>
      <point x="287" y="666" type="line"/>
      <point x="229" y="539"/>
      <point x="134" y="381"/>
      <point x="58" y="283" type="curve"/>
      <point x="166" y="220" type="line"/>
      <point x="247" y="319"/>
      <point x="343" y="464"/>
    </contour>
    <contour>
      <point x="21" y="308" type="curve"/>
      <point x="48" y="170" type="line"/>
      <point x="146" y="187"/>
      <point x="277" y="212"/>
      <point x="390" y="235" type="curve"/>
      <point x="379" y="362" type="line"/>
      <point x="255" y="341"/>
      <point x="117" y="321"/>
    </contour>
    <contour>
      <point x="25" y="87" type="curve"/>
      <point x="60" y="-56" type="line"/>
      <point x="146" y="-32"/>
      <point x="272" y="5"/>
      <point x="387" y="40" type="curve"/>
      <point x="370" y="165" type="line"/>
      <point x="245" y="134"/>
      <point x="112" y="104"/>
    </contour>
    <contour>
      <point x="818" y="808" type="line"/>
      <point x="423" y="808" type="line"/>
      <point x="423" y="677" type="line"/>
      <point x="818" y="677" type="line"/>
    </contour>
    <contour>
      <point x="812" y="808" type="line"/>
      <point x="784" y="808" type="line"/>
      <point x="784" y="785" type="line"/>
      <point x="722" y="639"/>
      <point x="554" y="518"/>
      <point x="361" y="466" type="curve"/>
      <point x="391" y="436"/>
      <point x="429" y="378"/>
      <point x="447" y="341" type="curve"/>
      <point x="666" y="416"/>
      <point x="850" y="550"/>
      <point x="941" y="761" type="curve"/>
      <point x="838" y="814" type="line"/>
    </contour>
    <contour>
      <point x="974" y="64" type="line"/>
      <point x="373" y="64" type="line"/>
      <point x="373" y="-70" type="line"/>
      <point x="974" y="-70" type="line"/>
    </contour>
    <contour>
      <point x="749" y="254" type="line"/>
      <point x="603" y="254" type="line"/>
      <point x="603" y="20" type="line"/>
      <point x="749" y="20" type="line"/>
    </contour>
    <contour>
      <point x="921" y="340" type="line"/>
      <point x="435" y="340" type="line"/>
      <point x="435" y="209" type="line"/>
      <point x="921" y="209" type="line"/>
    </contour>
    <contour>
      <point x="697" y="591" type="curve"/>
      <point x="617" y="488" type="line"/>
      <point x="710" y="446"/>
      <point x="843" y="378"/>
      <point x="903" y="333" type="curve"/>
      <point x="990" y="450" type="line"/>
      <point x="923" y="493"/>
      <point x="786" y="555"/>
    </contour>
  </outline>
</glyph>
<glyph name="uni7ED9" format="2">
  <advance width="1000" height="1000"/>
  <unicode hex="7ED9"/>
  <note>
cid31748
</note>
  <outline>
    <contour>
      <point x="842" y="539" type="line"/>
      <point x="513" y="539" type="line"/>
      <point x="513" y="408" type="line"/>
      <point x="842" y="408" type="line"/>
    </contour>
    <contour>
      <point x="852" y="84" type="line"/>
      <point x="522" y="84" type="line"/>
      <point x="522" y="-43" type="line"/>
      <point x="852" y="-43" type="line"/>
    </contour>
    <contour>
      <point x="671" y="692" type="curve"/>
      <point x="724" y="611"/>
      <point x="819" y="496"/>
      <point x="904" y="432" type="curve"/>
      <point x="928" y="478"/>
      <point x="962" y="531"/>
      <point x="992" y="568" type="curve"/>
      <point x="897" y="622"/>
      <point x="802" y="736"/>
      <point x="735" y="837" type="curve"/>
      <point x="598" y="837" type="line"/>
      <point x="551" y="749"/>
      <point x="453" y="621"/>
      <point x="355" y="553" type="curve"/>
      <point x="383" y="521"/>
      <point x="418" y="465"/>
      <point x="436" y="426" type="curve"/>
      <point x="532" y="497"/>
      <point x="618" y="608"/>
    </contour>
    <contour>
      <point x="911" y="337" type="line"/>
      <point x="446" y="337" type="line"/>
      <point x="446" y="-94" type="line"/>
      <point x="579" y="-94" type="line"/>
      <point x="579" y="210" type="line"/>
      <point x="772" y="210" type="line"/>
      <point x="772" y="-90" type="line"/>
      <point x="911" y="-90" type="line"/>
    </contour>
    <contour>
      <point x="302" y="806" type="curve"/>
      <point x="163" y="856" type="line"/>
      <point x="136" y="750"/>
      <point x="89" y="614"/>
      <point x="49" y="526" type="curve"/>
      <point x="159" y="480" type="line"/>
      <point x="203" y="563"/>
      <point x="258" y="689"/>
    </contour>
    <contour>
      <point x="11" y="539" type="curve"/>
      <point x="37" y="406" type="line"/>
      <point x="113" y="415"/>
      <point x="213" y="430"/>
      <point x="297" y="446" type="curve"/>
      <point x="291" y="569" type="line"/>
      <point x="196" y="557"/>
      <point x="88" y="546"/>
    </contour>
    <contour>
      <point x="418" y="629" type="curve"/>
      <point x="285" y="692" type="line"/>
      <point x="227" y="552"/>
      <point x="136" y="382"/>
      <point x="61" y="278" type="curve"/>
      <point x="172" y="221" type="line"/>
      <point x="248" y="323"/>
      <point x="343" y="480"/>
    </contour>
    <contour>
      <point x="21" y="298" type="curve"/>
      <point x="48" y="160" type="line"/>
      <point x="146" y="177"/>
      <point x="277" y="202"/>
      <point x="390" y="225" type="curve"/>
      <point x="379" y="352" type="line"/>
      <point x="255" y="331"/>
      <point x="117" y="311"/>
    </contour>
    <contour>
      <point x="26" y="77" type="curve"/>
      <point x="52" y="-66" type="line"/>
      <point x="152" y="-40"/>
      <point x="278" y="-8"/>
      <point x="396" y="24" type="curve"/>
      <point x="382" y="149" type="line"/>
      <point x="252" y="121"/>
      <point x="116" y="92"/>
    </contour>
  </outline>
</glyph>
<glyph name="uni7EDF" format="2">
  <advance width="1000" height="1000"/>
  <unicode hex="7EDF"/>
  <note>
cid31762
</note>
  <outline>
    <contour>
      <point x="748" y="688" type="line"/>
      <point x="748" y="855" type="line"/>
      <point x="600" y="855" type="line"/>
      <point x="600" y="688" type="line"/>
    </contour>
    <contour>
      <point x="686" y="623" type="curve"/>
      <point x="535" y="664" type="line"/>
      <point x="522" y="601"/>
      <point x="495" y="519"/>
      <point x="470" y="463" type="curve"/>
      <point x="590" y="425" type="line"/>
      <point x="617" y="475"/>
      <point x="652" y="550"/>
    </contour>
    <contour>
      <point x="835" y="612" type="curve"/>
      <point x="724" y="554" type="line"/>
      <point x="777" y="481"/>
      <point x="837" y="383"/>
      <point x="860" y="320" type="curve"/>
      <point x="980" y="385" type="line"/>
      <point x="953" y="450"/>
      <point x="889" y="543"/>
    </contour>
    <contour>
      <point x="963" y="618" type="line"/>
      <point x="963" y="747" type="line"/>
      <point x="391" y="747" type="line"/>
      <point x="391" y="618" type="line"/>
    </contour>
    <contour>
      <point x="398" y="484" type="curve"/>
      <point x="418" y="354" type="line"/>
      <point x="538" y="364"/>
      <point x="700" y="378"/>
      <point x="851" y="392" type="curve"/>
      <point x="849" y="516" type="line"/>
      <point x="689" y="503"/>
      <point x="515" y="491"/>
    </contour>
    <contour>
      <point x="814" y="74" type="curve" smooth="yes"/>
      <point x="814" y="341" type="line"/>
      <point x="678" y="341" type="line"/>
      <point x="678" y="72" type="line" smooth="yes"/>
      <point x="678" y="-47"/>
      <point x="699" y="-89"/>
      <point x="798" y="-89" type="curve" smooth="yes"/>
      <point x="816" y="-89"/>
      <point x="835" y="-89"/>
      <point x="854" y="-89" type="curve" smooth="yes"/>
      <point x="932" y="-89"/>
      <point x="965" y="-46"/>
      <point x="976" y="107" type="curve"/>
      <point x="940" y="117"/>
      <point x="882" y="139"/>
      <point x="856" y="162" type="curve"/>
      <point x="854" y="54"/>
      <point x="850" y="38"/>
      <point x="838" y="38" type="curve" smooth="yes"/>
      <point x="835" y="38"/>
      <point x="828" y="38"/>
      <point x="824" y="38" type="curve" smooth="yes"/>
      <point x="815" y="38"/>
      <point x="814" y="41"/>
    </contour>
    <contour>
      <point x="627" y="341" type="curve"/>
      <point x="490" y="341" type="line"/>
      <point x="485" y="178"/>
      <point x="478" y="75"/>
      <point x="331" y="12" type="curve"/>
      <point x="361" y="-13"/>
      <point x="397" y="-64"/>
      <point x="412" y="-97" type="curve"/>
      <point x="596" y="-14"/>
      <point x="620" y="132"/>
    </contour>
    <contour>
      <point x="301" y="804" type="curve"/>
      <point x="163" y="856" type="line"/>
      <point x="136" y="753"/>
      <point x="89" y="621"/>
      <point x="49" y="536" type="curve"/>
      <point x="159" y="491" type="line"/>
      <point x="205" y="574"/>
      <point x="259" y="695"/>
    </contour>
    <contour>
      <point x="11" y="549" type="curve"/>
      <point x="37" y="416" type="line"/>
      <point x="113" y="425"/>
      <point x="213" y="440"/>
      <point x="297" y="456" type="curve"/>
      <point x="291" y="579" type="line"/>
      <point x="196" y="567"/>
      <point x="88" y="556"/>
    </contour>
    <contour>
      <point x="416" y="596" type="curve"/>
      <point x="287" y="666" type="line"/>
      <point x="229" y="539"/>
      <point x="134" y="381"/>
      <point x="58" y="283" type="curve"/>
      <point x="166" y="220" type="line"/>
      <point x="247" y="319"/>
      <point x="343" y="464"/>
    </contour>
    <contour>
      <point x="21" y="308" type="curve"/>
      <point x="48" y="170" type="line"/>
      <point x="146" y="187"/>
      <point x="277" y="212"/>
      <point x="390" y="235" type="curve"/>
      <point x="379" y="362" type="line"/>
      <point x="255" y="341"/>
      <point x="117" y="321"/>
    </contour>
    <contour>
      <point x="26" y="77" type="curve"/>
      <point x="63" y="-63" type="line"/>
      <point x="160" y="-30"/>
      <point x="284" y="12"/>
      <point x="399" y="53" type="curve"/>
      <point x="375" y="177" type="line"/>
      <point x="248" y="139"/>
      <point x="114" y="99"/>
    </contour>
  </outline>
</glyph>
<glyph name="uni7F06" format="2">
  <advance width="1000" height="1000"/>
  <unicode hex="7F06"/>
  <note>
cid31801
</note>
  <outline>
    <contour>
      <point x="948" y="649" type="line"/>
      <point x="948" y="760" type="line"/>
      <point x="754" y="760" type="line"/>
      <point x="754" y="649" type="line"/>
    </contour>
    <contour>
      <point x="829" y="833" type="curve"/>
      <point x="706" y="856" type="line"/>
      <point x="693" y="766"/>
      <point x="661" y="646"/>
      <point x="609" y="575" type="curve"/>
      <point x="637" y="560"/>
      <point x="681" y="530"/>
      <point x="706" y="510" type="curve"/>
      <point x="765" y="591"/>
      <point x="804" y="724"/>
    </contour>
    <contour>
      <point x="829" y="635" type="curve"/>
      <point x="743" y="581" type="line"/>
      <point x="780" y="546"/>
      <point x="822" y="496"/>
      <point x="842" y="464" type="curve"/>
      <point x="931" y="527" type="line"/>
      <point x="910" y="558"/>
      <point x="867" y="602"/>
    </contour>
    <contour>
      <point x="493" y="487" type="line"/>
      <point x="493" y="816" type="line"/>
      <point x="380" y="816" type="line"/>
      <point x="380" y="487" type="line"/>
    </contour>
    <contour>
      <point x="752" y="49" type="curve" smooth="yes"/>
      <point x="752" y="121" type="line"/>
      <point x="630" y="121" type="line"/>
      <point x="630" y="48" type="line" smooth="yes"/>
      <point x="630" y="-48"/>
      <point x="653" y="-80"/>
      <point x="761" y="-80" type="curve" smooth="yes"/>
      <point x="782" y="-80"/>
      <point x="844" y="-80"/>
      <point x="866" y="-80" type="curve" smooth="yes"/>
      <point x="940" y="-80"/>
      <point x="972" y="-56"/>
      <point x="984" y="36" type="curve"/>
      <point x="952" y="43"/>
      <point x="902" y="60"/>
      <point x="879" y="77" type="curve"/>
      <point x="876" y="30"/>
      <point x="871" y="23"/>
      <point x="851" y="23" type="curve" smooth="yes"/>
      <point x="839" y="23"/>
      <point x="791" y="23"/>
      <point x="780" y="23" type="curve" smooth="yes"/>
      <point x="756" y="23"/>
      <point x="752" y="25"/>
    </contour>
    <contour>
      <point x="895" y="116" type="line"/>
      <point x="895" y="448" type="line"/>
      <point x="415" y="448" type="line"/>
      <point x="415" y="106" type="line"/>
      <point x="540" y="106" type="line"/>
      <point x="540" y="333" type="line"/>
      <point x="764" y="333" type="line"/>
      <point x="764" y="116" type="line"/>
    </contour>
    <contour>
      <point x="640" y="469" type="line"/>
      <point x="640" y="856" type="line"/>
      <point x="522" y="856" type="line"/>
      <point x="522" y="469" type="line"/>
    </contour>
    <contour>
      <point x="721" y="301" type="curve"/>
      <point x="591" y="301" type="line"/>
      <point x="583" y="128"/>
      <point x="565" y="47"/>
      <point x="309" y="6" type="curve"/>
      <point x="333" y="-19"/>
      <point x="363" y="-67"/>
      <point x="373" y="-98" type="curve"/>
      <point x="671" y="-40"/>
      <point x="710" y="81"/>
    </contour>
    <contour>
      <point x="288" y="808" type="curve"/>
      <point x="164" y="857" type="line"/>
      <point x="136" y="755"/>
      <point x="86" y="619"/>
      <point x="43" y="529" type="curve"/>
      <point x="145" y="484" type="line"/>
      <point x="192" y="573"/>
      <point x="248" y="698"/>
    </contour>
    <contour>
      <point x="12" y="548" type="curve"/>
      <point x="37" y="418" type="line"/>
      <point x="109" y="427"/>
      <point x="204" y="442"/>
      <point x="283" y="457" type="curve"/>
      <point x="278" y="577" type="line"/>
      <point x="191" y="564"/>
      <point x="89" y="553"/>
    </contour>
    <contour>
      <point x="394" y="632" type="curve"/>
      <point x="275" y="693" type="line"/>
      <point x="216" y="547"/>
      <point x="125" y="370"/>
      <point x="55" y="267" type="curve"/>
      <point x="153" y="215" type="line"/>
      <point x="230" y="320"/>
      <point x="324" y="481"/>
    </contour>
    <contour>
      <point x="19" y="307" type="curve"/>
      <point x="49" y="175" type="line"/>
      <point x="135" y="193"/>
      <point x="262" y="221"/>
      <point x="378" y="249" type="curve"/>
      <point x="364" y="373" type="line"/>
      <point x="243" y="348"/>
      <point x="110" y="322"/>
    </contour>
    <contour>
      <point x="22" y="83" type="curve"/>
      <point x="53" y="-52" type="line"/>
      <point x="147" y="-23"/>
      <point x="276" y="19"/>
      <point x="386" y="57" type="curve"/>
      <point x="367" y="176" type="line"/>
      <point x="247" y="142"/>
      <point x="114" y="106"/>
    </contour>
  </outline>
</glyph>
<glyph name="uni8138" format="2">
  <advance width="1000"/>
  <unicode hex="8138"/>
  <note>
cid32890
</note>
  <outline>
    <contour>
      <point x="523" y="377" type="curve"/>
      <point x="411" y="348" type="line"/>
      <point x="437" y="262"/>
      <point x="458" y="157"/>
      <point x="461" y="95" type="curve"/>
      <point x="581" y="131" type="line"/>
      <point x="577" y="193"/>
      <point x="553" y="294"/>
    </contour>
    <contour>
      <point x="704" y="398" type="curve"/>
      <point x="588" y="385" type="line"/>
      <point x="602" y="303"/>
      <point x="611" y="196"/>
      <point x="610" y="126" type="curve"/>
      <point x="734" y="144" type="line"/>
      <point x="733" y="213"/>
      <point x="721" y="318"/>
    </contour>
    <contour>
      <point x="947" y="345" type="curve"/>
      <point x="812" y="387" type="line"/>
      <point x="785" y="273"/>
      <point x="741" y="132"/>
      <point x="705" y="41" type="curve"/>
      <point x="816" y="-1" type="line"/>
      <point x="856" y="90"/>
      <point x="906" y="222"/>
    </contour>
    <contour>
      <point x="952" y="67" type="line"/>
      <point x="393" y="67" type="line"/>
      <point x="393" y="-69" type="line"/>
      <point x="952" y="-69" type="line"/>
    </contour>
    <contour>
      <point x="832" y="435" type="line"/>
      <point x="832" y="563" type="line"/>
      <point x="503" y="563" type="line"/>
      <point x="503" y="435" type="line"/>
    </contour>
    <contour>
      <point x="667" y="718" type="curve"/>
      <point x="718" y="636"/>
      <point x="815" y="534"/>
      <point x="906" y="480" type="curve"/>
      <point x="927" y="524"/>
      <point x="957" y="579"/>
      <point x="985" y="615" type="curve"/>
      <point x="887" y="658"/>
      <point x="795" y="756"/>
      <point x="730" y="855" type="curve"/>
      <point x="594" y="855" type="line"/>
      <point x="549" y="770"/>
      <point x="455" y="660"/>
      <point x="356" y="607" type="curve"/>
      <point x="381" y="575"/>
      <point x="413" y="519"/>
      <point x="428" y="480" type="curve"/>
      <point x="525" y="537"/>
      <point x="617" y="637"/>
    </contour>
    <contour>
      <point x="335" y="693" type="line"/>
      <point x="335" y="822" type="line"/>
      <point x="132" y="822" type="line"/>
      <point x="132" y="693" type="line"/>
    </contour>
    <contour>
      <point x="320" y="468" type="line"/>
      <point x="320" y="594" type="line"/>
      <point x="139" y="594" type="line"/>
      <point x="139" y="468" type="line"/>
    </contour>
    <contour>
      <point x="320" y="237" type="line"/>
      <point x="320" y="364" type="line"/>
      <point x="139" y="364" type="line"/>
      <point x="139" y="237" type="line"/>
    </contour>
    <contour>
      <point x="202" y="452" type="curve" smooth="yes"/>
      <point x="202" y="822" type="line"/>
      <point x="76" y="822" type="line"/>
      <point x="76" y="452" type="line" smooth="yes"/>
      <point x="76" y="304"/>
      <point x="73" y="99"/>
      <point x="18" y="-38" type="curve"/>
      <point x="50" y="-50"/>
      <point x="107" y="-82"/>
      <point x="132" y="-102" type="curve"/>
      <point x="193" y="49"/>
      <point x="202" y="289"/>
    </contour>
    <contour>
      <point x="386" y="48" type="curve" smooth="yes"/>
      <point x="386" y="822" type="line"/>
      <point x="255" y="822" type="line"/>
      <point x="255" y="50" type="line" smooth="yes"/>
      <point x="255" y="39"/>
      <point x="252" y="36"/>
      <point x="243" y="36" type="curve" smooth="yes"/>
      <point x="234" y="36"/>
      <point x="209" y="36"/>
      <point x="189" y="37" type="curve"/>
      <point x="204" y="2"/>
      <point x="217" y="-60"/>
      <point x="219" y="-96" type="curve"/>
      <point x="275" y="-96"/>
      <point x="315" y="-93"/>
      <point x="347" y="-70" type="curve" smooth="yes"/>
      <point x="379" y="-47"/>
      <point x="386" y="-10"/>
    </contour>
  </outline>
</glyph>
<glyph name="uni8A00" format="2">
  <advance width="1000" height="1000"/>
  <unicode hex="8A00"/>
  <note>
cid37548
</note>
  <outline>
    <contour>
      <point x="749" y="-64" type="line"/>
      <point x="749" y="62" type="line"/>
      <point x="262" y="62" type="line"/>
      <point x="262" y="-64" type="line"/>
    </contour>
    <contour>
      <point x="805" y="289" type="line"/>
      <point x="805" y="410" type="line"/>
      <point x="201" y="410" type="line"/>
      <point x="201" y="289" type="line"/>
    </contour>
    <contour>
      <point x="805" y="445" type="line"/>
      <point x="805" y="566" type="line"/>
      <point x="201" y="566" type="line"/>
      <point x="201" y="445" type="line"/>
    </contour>
    <contour>
      <point x="823" y="-91" type="line"/>
      <point x="823" y="251" type="line"/>
      <point x="182" y="251" type="line"/>
      <point x="182" y="-94" type="line"/>
      <point x="325" y="-94" type="line"/>
      <point x="325" y="123" type="line"/>
      <point x="672" y="123" type="line"/>
      <point x="672" y="-91" type="line"/>
    </contour>
    <contour>
      <point x="961" y="600" type="line"/>
      <point x="961" y="730" type="line"/>
      <point x="42" y="730" type="line"/>
      <point x="42" y="600" type="line"/>
    </contour>
    <contour>
      <point x="572" y="661" type="line"/>
      <point x="572" y="855" type="line"/>
      <point x="418" y="855" type="line"/>
      <point x="418" y="661" type="line"/>
    </contour>
  </outline>
</glyph>
<glyph name="uni8BE2" format="2">
  <advance width="1000" height="1000"/>
  <unicode hex="8BE2"/>
  <note>
cid38498
</note>
  <outline>
    <contour>
      <point x="621" y="821" type="curve"/>
      <point x="481" y="855" type="line"/>
      <point x="444" y="728"/>
      <point x="373" y="604"/>
      <point x="288" y="530" type="curve"/>
      <point x="320" y="508"/>
      <point x="377" y="460"/>
      <point x="402" y="435" type="curve"/>
      <point x="490" y="525"/>
      <point x="573" y="671"/>
    </contour>
    <contour>
      <point x="864" y="577" type="line"/>
      <point x="864" y="714" type="line"/>
      <point x="481" y="714" type="line"/>
      <point x="481" y="577" type="line"/>
    </contour>
    <contour>
      <point x="964" y="714" type="curve"/>
      <point x="823" y="714" type="line"/>
      <point x="823" y="684" type="line" smooth="yes"/>
      <point x="815" y="270"/>
      <point x="805" y="97"/>
      <point x="776" y="64" type="curve" smooth="yes"/>
      <point x="764" y="49"/>
      <point x="753" y="45"/>
      <point x="735" y="45" type="curve" smooth="yes"/>
      <point x="709" y="45"/>
      <point x="658" y="45"/>
      <point x="602" y="50" type="curve"/>
      <point x="627" y="9"/>
      <point x="646" y="-54"/>
      <point x="648" y="-94" type="curve"/>
      <point x="705" y="-95"/>
      <point x="763" y="-96"/>
      <point x="801" y="-88" type="curve" smooth="yes"/>
      <point x="844" y="-80"/>
      <point x="873" y="-67"/>
      <point x="903" y="-24" type="curve" smooth="yes"/>
      <point x="942" y="31"/>
      <point x="952" y="196"/>
      <point x="963" y="648" type="curve" smooth="yes"/>
      <point x="963" y="666"/>
      <point x="964" y="714"/>
    </contour>
    <contour>
      <point x="680" y="259" type="line"/>
      <point x="680" y="368" type="line"/>
      <point x="481" y="368" type="line"/>
      <point x="481" y="259" type="line"/>
    </contour>
    <contour>
      <point x="748" y="104" type="line"/>
      <point x="748" y="520" type="line"/>
      <point x="495" y="520" type="line"/>
      <point x="495" y="407" type="line"/>
      <point x="622" y="407" type="line"/>
      <point x="622" y="217" type="line"/>
      <point x="495" y="217" type="line"/>
      <point x="495" y="104" type="line"/>
    </contour>
    <contour>
      <point x="549" y="52" type="line"/>
      <point x="549" y="520" type="line"/>
      <point x="425" y="520" type="line"/>
      <point x="425" y="52" type="line"/>
    </contour>
    <contour>
      <point x="171" y="843" type="curve"/>
      <point x="68" y="757" type="line"/>
      <point x="125" y="705"/>
      <point x="180" y="639"/>
      <point x="212" y="586" type="curve"/>
      <point x="321" y="681" type="line"/>
      <point x="287" y="734"/>
      <point x="229" y="796"/>
    </contour>
    <contour>
      <point x="196" y="390" type="line"/>
      <point x="196" y="531" type="line"/>
      <point x="25" y="531" type="line"/>
      <point x="25" y="390" type="line"/>
    </contour>
    <contour>
      <point x="275" y="91" type="line"/>
      <point x="275" y="531" type="line"/>
      <point x="136" y="531" type="line"/>
      <point x="136" y="31" type="line"/>
    </contour>
    <contour>
      <point x="66" y="32" type="curve"/>
      <point x="138" y="-95" type="line"/>
      <point x="214" y="-57"/>
      <point x="310" y="-4"/>
      <point x="388" y="42" type="curve"/>
      <point x="349" y="161" type="line"/>
      <point x="260" y="117"/>
      <point x="151" y="67"/>
    </contour>
  </outline>
</glyph>
<glyph name="uni8F66" format="2">
  <advance width="1000"/>
  <unicode hex="8F66"/>
  <note>
cid39922
</note>
  <outline>
    <contour>
      <point x="939" y="716" type="line"/>
      <point x="65" y="716" type="line"/>
      <point x="65" y="576" type="line"/>
      <point x="939" y="576" type="line"/>
    </contour>
    <contour>
      <point x="960" y="209" type="line"/>
      <point x="41" y="209" type="line"/>
      <point x="41" y="67" type="line"/>
      <point x="960" y="67" type="line"/>
    </contour>
    <contour>
      <point x="597" y="536" type="line"/>
      <point x="440" y="536" type="line"/>
      <point x="440" y="-95" type="line"/>
      <point x="597" y="-95" type="line"/>
    </contour>
    <contour>
      <point x="873" y="439" type="line"/>
      <point x="201" y="439" type="line"/>
      <point x="201" y="301" type="line"/>
      <point x="873" y="301" type="line"/>
    </contour>
    <contour>
      <point x="467" y="838" type="curve"/>
      <point x="307" y="855" type="line"/>
      <point x="249" y="663"/>
      <point x="174" y="450"/>
      <point x="112" y="301" type="curve"/>
      <point x="272" y="273" type="line"/>
      <point x="331" y="419"/>
      <point x="406" y="636"/>
    </contour>
  </outline>
</glyph>
<glyph name="uni8F67" format="2">
  <advance width="1000" height="1000"/>
  <unicode hex="8F67"/>
  <note>
cid39921
</note>
  <outline>
    <contour>
      <point x="510" y="608" type="line"/>
      <point x="510" y="742" type="line"/>
      <point x="34" y="742" type="line"/>
      <point x="34" y="608" type="line"/>
    </contour>
    <contour>
      <point x="399" y="-94" type="line"/>
      <point x="399" y="557" type="line"/>
      <point x="259" y="557" type="line"/>
      <point x="259" y="-94" type="line"/>
    </contour>
    <contour>
      <point x="19" y="199" type="curve"/>
      <point x="49" y="52" type="line"/>
      <point x="181" y="73"/>
      <point x="359" y="103"/>
      <point x="510" y="130" type="curve"/>
      <point x="503" y="261" type="line"/>
      <point x="335" y="237"/>
      <point x="148" y="213"/>
    </contour>
    <contour>
      <point x="504" y="314" type="line"/>
      <point x="505" y="444" type="line"/>
      <point x="142" y="444" type="line"/>
      <point x="142" y="314" type="line"/>
    </contour>
    <contour>
      <point x="300" y="840" type="curve"/>
      <point x="167" y="855" type="line"/>
      <point x="133" y="665"/>
      <point x="87" y="451"/>
      <point x="48" y="300" type="curve"/>
      <point x="180" y="275" type="line"/>
      <point x="219" y="427"/>
      <point x="265" y="645"/>
    </contour>
    <contour>
      <point x="696" y="124" type="curve" smooth="yes"/>
      <point x="696" y="830" type="line"/>
      <point x="546" y="830" type="line"/>
      <point x="546" y="125" type="line" smooth="yes"/>
      <point x="546" y="-33"/>
      <point x="582" y="-81"/>
      <point x="708" y="-81" type="curve" smooth="yes"/>
      <point x="731" y="-81"/>
      <point x="791" y="-81"/>
      <point x="817" y="-81" type="curve" smooth="yes"/>
      <point x="934" y="-81"/>
      <point x="970" y="-6"/>
      <point x="984" y="185" type="curve"/>
      <point x="944" y="194"/>
      <point x="882" y="222"/>
      <point x="847" y="249" type="curve"/>
      <point x="841" y="98"/>
      <point x="835" y="60"/>
      <point x="801" y="60" type="curve" smooth="yes"/>
      <point x="788" y="60"/>
      <point x="745" y="60"/>
      <point x="731" y="60" type="curve" smooth="yes"/>
      <point x="699" y="60"/>
      <point x="696" y="67"/>
    </contour>
  </outline>
</glyph>
<glyph name="uni8F6E" format="2">
  <advance width="1000" height="1000"/>
  <unicode hex="8F6E"/>
  <note>
cid39928
</note>
  <outline>
    <contour>
      <point x="436" y="610" type="line"/>
      <point x="436" y="747" type="line"/>
      <point x="33" y="747" type="line"/>
      <point x="33" y="610" type="line"/>
    </contour>
    <contour>
      <point x="333" y="383" type="line"/>
      <point x="333" y="561" type="line"/>
      <point x="224" y="561" type="line"/>
      <point x="224" y="383" type="line"/>
    </contour>
    <contour>
      <point x="21" y="195" type="curve"/>
      <point x="49" y="56" type="line"/>
      <point x="164" y="75"/>
      <point x="316" y="101"/>
      <point x="444" y="125" type="curve"/>
      <point x="437" y="249" type="line"/>
      <point x="292" y="228"/>
      <point x="131" y="207"/>
    </contour>
    <contour>
      <point x="433" y="314" type="line"/>
      <point x="434" y="444" type="line"/>
      <point x="124" y="444" type="line"/>
      <point x="124" y="314" type="line"/>
    </contour>
    <contour>
      <point x="687" y="694" type="curve"/>
      <point x="734" y="605"/>
      <point x="822" y="480"/>
      <point x="908" y="411" type="curve"/>
      <point x="930" y="457"/>
      <point x="962" y="511"/>
      <point x="990" y="547" type="curve"/>
      <point x="899" y="606"/>
      <point x="809" y="734"/>
      <point x="749" y="845" type="curve"/>
      <point x="615" y="845" type="line"/>
      <point x="574" y="748"/>
      <point x="484" y="608"/>
      <point x="390" y="536" type="curve"/>
      <point x="416" y="504"/>
      <point x="450" y="449"/>
      <point x="466" y="409" type="curve"/>
      <point x="559" y="483"/>
      <point x="640" y="603"/>
    </contour>
    <contour>
      <point x="265" y="841" type="curve"/>
      <point x="137" y="855" type="line"/>
      <point x="108" y="664"/>
      <point x="68" y="450"/>
      <point x="33" y="300" type="curve"/>
      <point x="160" y="276" type="line"/>
      <point x="195" y="428"/>
      <point x="235" y="646"/>
    </contour>
    <contour>
      <point x="333" y="-95" type="line"/>
      <point x="333" y="383" type="line"/>
      <point x="209" y="383" type="line"/>
      <point x="209" y="-95" type="line"/>
    </contour>
    <contour>
      <point x="909" y="331" type="curve"/>
      <point x="812" y="443" type="line"/>
      <point x="738" y="385"/>
      <point x="626" y="328"/>
      <point x="517" y="292" type="curve"/>
      <point x="535" y="263"/>
      <point x="557" y="215"/>
      <point x="564" y="185" type="curve"/>
      <point x="680" y="219"/>
      <point x="808" y="267"/>
    </contour>
    <contour>
      <point x="633" y="104" type="curve" smooth="yes"/>
      <point x="633" y="470" type="line"/>
      <point x="489" y="470" type="line"/>
      <point x="489" y="103" type="line" smooth="yes"/>
      <point x="489" y="-39"/>
      <point x="525" y="-82"/>
      <point x="664" y="-82" type="curve" smooth="yes"/>
      <point x="693" y="-82"/>
      <point x="751" y="-82"/>
      <point x="781" y="-82" type="curve" smooth="yes"/>
      <point x="896" y="-82"/>
      <point x="935" y="-35"/>
      <point x="952" y="122" type="curve"/>
      <point x="912" y="131"/>
      <point x="852" y="154"/>
      <point x="821" y="178" type="curve"/>
      <point x="814" y="72"/>
      <point x="807" y="53"/>
      <point x="768" y="53" type="curve" smooth="yes"/>
      <point x="746" y="53"/>
      <point x="703" y="53"/>
      <point x="683" y="53" type="curve" smooth="yes"/>
      <point x="639" y="53"/>
      <point x="633" y="58"/>
    </contour>
  </outline>
</glyph>
<glyph name="uni8F93" format="2">
  <advance width="1000" height="1000"/>
  <unicode hex="8F93"/>
  <note>
cid39965
</note>
  <outline>
    <contour>
      <point x="372" y="615" type="line"/>
      <point x="372" y="744" type="line"/>
      <point x="29" y="744" type="line"/>
      <point x="29" y="615" type="line"/>
    </contour>
    <contour>
      <point x="299" y="373" type="line"/>
      <point x="299" y="562" type="line"/>
      <point x="193" y="562" type="line"/>
      <point x="193" y="373" type="line"/>
    </contour>
    <contour>
      <point x="26" y="195" type="curve"/>
      <point x="54" y="61" type="line"/>
      <point x="150" y="81"/>
      <point x="270" y="106"/>
      <point x="382" y="132" type="curve"/>
      <point x="372" y="252" type="line"/>
      <point x="246" y="230"/>
      <point x="114" y="207"/>
    </contour>
    <contour>
      <point x="366" y="310" type="line"/>
      <point x="366" y="440" type="line"/>
      <point x="114" y="440" type="line"/>
      <point x="114" y="310" type="line"/>
    </contour>
    <contour>
      <point x="818" y="483" type="line"/>
      <point x="818" y="597" type="line"/>
      <point x="506" y="597" type="line"/>
      <point x="506" y="483" type="line"/>
    </contour>
    <contour>
      <point x="623" y="204" type="line"/>
      <point x="623" y="305" type="line"/>
      <point x="471" y="305" type="line"/>
      <point x="471" y="204" type="line"/>
    </contour>
    <contour>
      <point x="623" y="67" type="line"/>
      <point x="623" y="168" type="line"/>
      <point x="471" y="168" type="line"/>
      <point x="471" y="67" type="line"/>
    </contour>
    <contour>
      <point x="667" y="18" type="curve" smooth="yes"/>
      <point x="667" y="445" type="line"/>
      <point x="559" y="445" type="line"/>
      <point x="559" y="20" type="line" smooth="yes"/>
      <point x="559" y="12"/>
      <point x="557" y="9"/>
      <point x="550" y="9" type="curve" smooth="yes"/>
      <point x="543" y="9"/>
      <point x="527" y="9"/>
      <point x="513" y="10" type="curve"/>
      <point x="525" y="-19"/>
      <point x="537" y="-65"/>
      <point x="539" y="-95" type="curve"/>
      <point x="579" y="-95"/>
      <point x="610" y="-94"/>
      <point x="636" y="-76" type="curve" smooth="yes"/>
      <point x="663" y="-58"/>
      <point x="667" y="-29"/>
    </contour>
    <contour>
      <point x="621" y="337" type="line"/>
      <point x="621" y="445" type="line"/>
      <point x="399" y="445" type="line"/>
      <point x="399" y="-95" type="line"/>
      <point x="505" y="-95" type="line"/>
      <point x="505" y="337" type="line"/>
    </contour>
    <contour>
      <point x="792" y="75" type="line"/>
      <point x="792" y="422" type="line"/>
      <point x="691" y="422" type="line"/>
      <point x="691" y="75" type="line"/>
    </contour>
    <contour>
      <point x="661" y="726" type="curve"/>
      <point x="716" y="643"/>
      <point x="818" y="539"/>
      <point x="909" y="482" type="curve"/>
      <point x="930" y="525"/>
      <point x="959" y="576"/>
      <point x="987" y="611" type="curve"/>
      <point x="886" y="657"/>
      <point x="789" y="757"/>
      <point x="720" y="858" type="curve"/>
      <point x="592" y="858" type="line"/>
      <point x="544" y="772"/>
      <point x="444" y="659"/>
      <point x="342" y="602" type="curve"/>
      <point x="366" y="571"/>
      <point x="398" y="518"/>
      <point x="412" y="481" type="curve"/>
      <point x="512" y="542"/>
      <point x="606" y="643"/>
    </contour>
    <contour>
      <point x="933" y="30" type="curve" smooth="yes"/>
      <point x="933" y="454" type="line"/>
      <point x="818" y="454" type="line"/>
      <point x="818" y="32" type="line" smooth="yes"/>
      <point x="818" y="21"/>
      <point x="814" y="18"/>
      <point x="804" y="18" type="curve" smooth="yes"/>
      <point x="792" y="18"/>
      <point x="756" y="18"/>
      <point x="724" y="19" type="curve"/>
      <point x="737" y="-13"/>
      <point x="752" y="-62"/>
      <point x="756" y="-95" type="curve"/>
      <point x="814" y="-95"/>
      <point x="858" y="-93"/>
      <point x="891" y="-75" type="curve" smooth="yes"/>
      <point x="925" y="-56"/>
      <point x="933" y="-25"/>
    </contour>
    <contour>
      <point x="244" y="843" type="curve"/>
      <point x="132" y="855" type="line"/>
      <point x="103" y="664"/>
      <point x="63" y="450"/>
      <point x="28" y="300" type="curve"/>
      <point x="140" y="279" type="line"/>
      <point x="174" y="428"/>
      <point x="214" y="648"/>
    </contour>
    <contour>
      <point x="299" y="-95" type="line"/>
      <point x="299" y="373" type="line"/>
      <point x="178" y="373" type="line"/>
      <point x="178" y="-95" type="line"/>
    </contour>
  </outline>
</glyph>
<glyph name="uni8FBE" format="2">
  <advance width="1000" height="1000"/>
  <unicode hex="8FBE"/>
  <note>
cid40048
</note>
  <outline>
    <contour>
      <point x="951" y="512" type="line"/>
      <point x="951" y="647" type="line"/>
      <point x="320" y="647" type="line"/>
      <point x="320" y="512" type="line"/>
    </contour>
    <contour>
      <point x="695" y="852" type="curve"/>
      <point x="550" y="852" type="line"/>
      <point x="547" y="509"/>
      <point x="555" y="312"/>
      <point x="312" y="196" type="curve"/>
      <point x="344" y="171"/>
      <point x="385" y="118"/>
      <point x="402" y="82" type="curve"/>
      <point x="681" y="220"/>
      <point x="691" y="471"/>
    </contour>
    <contour>
      <point x="693" y="558" type="curve"/>
      <point x="567" y="540" type="line"/>
      <point x="613" y="312"/>
      <point x="689" y="158"/>
      <point x="884" y="86" type="curve"/>
      <point x="903" y="126"/>
      <point x="944" y="185"/>
      <point x="975" y="214" type="curve"/>
      <point x="805" y="263"/>
      <point x="728" y="388"/>
    </contour>
    <contour>
      <point x="144" y="90" type="line"/>
      <point x="286" y="90" type="line"/>
      <point x="286" y="468" type="line"/>
      <point x="41" y="468" type="line"/>
      <point x="41" y="334" type="line"/>
      <point x="144" y="334" type="line"/>
    </contour>
    <contour>
      <point x="286" y="154" type="curve"/>
      <point x="153" y="154" type="line"/>
      <point x="109" y="122"/>
      <point x="59" y="92"/>
      <point x="15" y="67" type="curve"/>
      <point x="85" y="-85" type="line"/>
      <point x="139" y="-42"/>
      <point x="181" y="-6"/>
      <point x="222" y="30" type="curve"/>
      <point x="288" y="-47"/>
      <point x="367" y="-72"/>
      <point x="486" y="-77" type="curve" smooth="yes"/>
      <point x="611" y="-83"/>
      <point x="810" y="-81"/>
      <point x="937" y="-74" type="curve"/>
      <point x="944" y="-31"/>
      <point x="967" y="39"/>
      <point x="983" y="74" type="curve"/>
      <point x="839" y="61"/>
      <point x="611" y="58"/>
      <point x="489" y="63" type="curve" smooth="yes"/>
      <point x="391" y="67"/>
      <point x="323" y="92"/>
    </contour>
    <contour>
      <point x="145" y="832" type="curve"/>
      <point x="37" y="745" type="line"/>
      <point x="94" y="700"/>
      <point x="164" y="633"/>
      <point x="193" y="587" type="curve"/>
      <point x="309" y="683" type="line"/>
      <point x="275" y="729"/>
      <point x="202" y="791"/>
    </contour>
  </outline>
</glyph>
<glyph name="uni8FC1" format="2">
  <advance width="1000" height="1000"/>
  <unicode hex="8FC1"/>
  <note>
cid40056
</note>
  <outline>
    <contour>
      <point x="961" y="394" type="line"/>
      <point x="961" y="525" type="line"/>
      <point x="321" y="525" type="line"/>
      <point x="321" y="394" type="line"/>
    </contour>
    <contour>
      <point x="711" y="75" type="line"/>
      <point x="711" y="759" type="line"/>
      <point x="567" y="759" type="line"/>
      <point x="567" y="75" type="line"/>
    </contour>
    <contour>
      <point x="918" y="738" type="curve"/>
      <point x="828" y="852" type="line"/>
      <point x="705" y="808"/>
      <point x="517" y="776"/>
      <point x="344" y="760" type="curve"/>
      <point x="359" y="730"/>
      <point x="377" y="678"/>
      <point x="382" y="645" type="curve"/>
      <point x="560" y="659"/>
      <point x="764" y="687"/>
    </contour>
    <contour>
      <point x="144" y="90" type="line"/>
      <point x="286" y="90" type="line"/>
      <point x="286" y="468" type="line"/>
      <point x="41" y="468" type="line"/>
      <point x="41" y="334" type="line"/>
      <point x="144" y="334" type="line"/>
    </contour>
    <contour>
      <point x="286" y="154" type="curve"/>
      <point x="153" y="154" type="line"/>
      <point x="109" y="122"/>
      <point x="59" y="92"/>
      <point x="15" y="67" type="curve"/>
      <point x="85" y="-85" type="line"/>
      <point x="139" y="-42"/>
      <point x="181" y="-6"/>
      <point x="222" y="30" type="curve"/>
      <point x="288" y="-47"/>
      <point x="367" y="-72"/>
      <point x="486" y="-77" type="curve" smooth="yes"/>
      <point x="611" y="-83"/>
      <point x="810" y="-81"/>
      <point x="937" y="-74" type="curve"/>
      <point x="944" y="-31"/>
      <point x="967" y="39"/>
      <point x="983" y="74" type="curve"/>
      <point x="839" y="61"/>
      <point x="611" y="58"/>
      <point x="489" y="63" type="curve" smooth="yes"/>
      <point x="391" y="67"/>
      <point x="323" y="92"/>
    </contour>
    <contour>
      <point x="145" y="832" type="curve"/>
      <point x="37" y="745" type="line"/>
      <point x="94" y="700"/>
      <point x="164" y="633"/>
      <point x="193" y="587" type="curve"/>
      <point x="309" y="683" type="line"/>
      <point x="275" y="729"/>
      <point x="202" y="791"/>
    </contour>
  </outline>
</glyph>
<glyph name="uni8FC7" format="2">
  <advance width="1000"/>
  <unicode hex="8FC7"/>
  <note>
cid40074
</note>
  <outline>
    <contour>
      <point x="145" y="832" type="curve"/>
      <point x="37" y="745" type="line"/>
      <point x="94" y="700"/>
      <point x="164" y="633"/>
      <point x="193" y="587" type="curve"/>
      <point x="309" y="683" type="line"/>
      <point x="275" y="729"/>
      <point x="202" y="791"/>
    </contour>
    <contour>
      <point x="286" y="91" type="line"/>
      <point x="286" y="468" type="line"/>
      <point x="39" y="468" type="line"/>
      <point x="39" y="333" type="line"/>
      <point x="143" y="333" type="line"/>
      <point x="143" y="91" type="line"/>
    </contour>
    <contour>
      <point x="962" y="551" type="line"/>
      <point x="962" y="688" type="line"/>
      <point x="336" y="688" type="line"/>
      <point x="336" y="551" type="line"/>
    </contour>
    <contour>
      <point x="848" y="259" type="curve" smooth="yes"/>
      <point x="848" y="847" type="line"/>
      <point x="700" y="847" type="line"/>
      <point x="700" y="261" type="line" smooth="yes"/>
      <point x="700" y="244"/>
      <point x="693" y="238"/>
      <point x="673" y="238" type="curve" smooth="yes"/>
      <point x="653" y="238"/>
      <point x="591" y="238"/>
      <point x="534" y="241" type="curve"/>
      <point x="553" y="201"/>
      <point x="574" y="136"/>
      <point x="580" y="94" type="curve"/>
      <point x="668" y="94"/>
      <point x="738" y="98"/>
      <point x="784" y="120" type="curve" smooth="yes"/>
      <point x="833" y="142"/>
      <point x="848" y="180"/>
    </contour>
    <contour>
      <point x="488" y="523" type="curve"/>
      <point x="368" y="463" type="line"/>
      <point x="414" y="401"/>
      <point x="464" y="317"/>
      <point x="487" y="260" type="curve"/>
      <point x="616" y="330" type="line"/>
      <point x="592" y="384"/>
      <point x="539" y="464"/>
    </contour>
    <contour>
      <point x="286" y="153" type="curve"/>
      <point x="156" y="153" type="line"/>
      <point x="112" y="120"/>
      <point x="62" y="89"/>
      <point x="18" y="64" type="curve"/>
      <point x="86" y="-84" type="line"/>
      <point x="139" y="-42"/>
      <point x="182" y="-5"/>
      <point x="223" y="32" type="curve"/>
      <point x="291" y="-45"/>
      <point x="374" y="-71"/>
      <point x="497" y="-77" type="curve" smooth="yes"/>
      <point x="619" y="-82"/>
      <point x="817" y="-80"/>
      <point x="942" y="-73" type="curve"/>
      <point x="949" y="-31"/>
      <point x="971" y="37"/>
      <point x="987" y="71" type="curve"/>
      <point x="845" y="58"/>
      <point x="619" y="55"/>
      <point x="499" y="61" type="curve" smooth="yes"/>
      <point x="396" y="65"/>
      <point x="325" y="90"/>
    </contour>
  </outline>
</glyph>
<glyph name="uni8FD0" format="2">
  <advance width="1000" height="1000"/>
  <unicode hex="8FD0"/>
  <note>
cid40094
</note>
  <outline>
    <contour>
      <point x="913" y="676" type="line"/>
      <point x="913" y="811" type="line"/>
      <point x="395" y="811" type="line"/>
      <point x="395" y="676" type="line"/>
    </contour>
    <contour>
      <point x="976" y="459" type="line"/>
      <point x="976" y="594" type="line"/>
      <point x="327" y="594" type="line"/>
      <point x="327" y="459" type="line"/>
    </contour>
    <contour>
      <point x="659" y="478" type="curve"/>
      <point x="499" y="523" type="line"/>
      <point x="481" y="432"/>
      <point x="443" y="313"/>
      <point x="408" y="233" type="curve"/>
      <point x="526" y="192" type="line"/>
      <point x="566" y="265"/>
      <point x="616" y="376"/>
    </contour>
    <contour>
      <point x="333" y="253" type="curve"/>
      <point x="355" y="110" type="line"/>
      <point x="492" y="124"/>
      <point x="679" y="142"/>
      <point x="854" y="162" type="curve"/>
      <point x="853" y="291" type="line"/>
      <point x="666" y="276"/>
      <point x="464" y="260"/>
    </contour>
    <contour>
      <point x="808" y="450" type="curve"/>
      <point x="690" y="394" type="line"/>
      <point x="756" y="300"/>
      <point x="823" y="176"/>
      <point x="845" y="94" type="curve"/>
      <point x="974" y="159" type="line"/>
      <point x="948" y="243"/>
      <point x="875" y="361"/>
    </contour>
    <contour>
      <point x="144" y="90" type="line"/>
      <point x="286" y="90" type="line"/>
      <point x="286" y="468" type="line"/>
      <point x="41" y="468" type="line"/>
      <point x="41" y="334" type="line"/>
      <point x="144" y="334" type="line"/>
    </contour>
    <contour>
      <point x="286" y="154" type="curve"/>
      <point x="153" y="154" type="line"/>
      <point x="109" y="122"/>
      <point x="59" y="92"/>
      <point x="15" y="67" type="curve"/>
      <point x="85" y="-85" type="line"/>
      <point x="139" y="-42"/>
      <point x="181" y="-6"/>
      <point x="222" y="30" type="curve"/>
      <point x="288" y="-47"/>
      <point x="367" y="-72"/>
      <point x="486" y="-77" type="curve" smooth="yes"/>
      <point x="611" y="-83"/>
      <point x="810" y="-81"/>
      <point x="937" y="-74" type="curve"/>
      <point x="944" y="-31"/>
      <point x="967" y="39"/>
      <point x="983" y="74" type="curve"/>
      <point x="839" y="61"/>
      <point x="611" y="58"/>
      <point x="489" y="63" type="curve" smooth="yes"/>
      <point x="391" y="67"/>
      <point x="323" y="92"/>
    </contour>
    <contour>
      <point x="145" y="832" type="curve"/>
      <point x="37" y="745" type="line"/>
      <point x="94" y="700"/>
      <point x="164" y="633"/>
      <point x="193" y="587" type="curve"/>
      <point x="309" y="683" type="line"/>
      <point x="275" y="729"/>
      <point x="202" y="791"/>
    </contour>
  </outline>
</glyph>
<glyph name="uni8FD8" format="2">
  <advance width="1000"/>
  <unicode hex="8FD8"/>
  <note>
cid40120
</note>
  <outline>
    <contour>
      <point x="950" y="801" type="line"/>
      <point x="337" y="801" type="line"/>
      <point x="337" y="657" type="line"/>
      <point x="950" y="657" type="line"/>
    </contour>
    <contour>
      <point x="774" y="572" type="curve"/>
      <point x="667" y="482" type="line"/>
      <point x="745" y="414"/>
      <point x="819" y="332"/>
      <point x="861" y="269" type="curve"/>
      <point x="975" y="373" type="line"/>
      <point x="933" y="431"/>
      <point x="856" y="508"/>
    </contour>
    <contour>
      <point x="783" y="700" type="curve"/>
      <point x="638" y="760" type="line"/>
      <point x="575" y="612"/>
      <point x="454" y="483"/>
      <point x="300" y="401" type="curve"/>
      <point x="334" y="367"/>
      <point x="376" y="309"/>
      <point x="395" y="270" type="curve"/>
      <point x="562" y="366"/>
      <point x="702" y="520"/>
    </contour>
    <contour>
      <point x="623" y="649" type="line"/>
      <point x="557" y="583" type="line"/>
      <point x="557" y="83" type="line"/>
      <point x="708" y="83" type="line"/>
      <point x="708" y="622" type="line"/>
    </contour>
    <contour>
      <point x="144" y="90" type="line"/>
      <point x="286" y="90" type="line"/>
      <point x="286" y="468" type="line"/>
      <point x="41" y="468" type="line"/>
      <point x="41" y="334" type="line"/>
      <point x="144" y="334" type="line"/>
    </contour>
    <contour>
      <point x="286" y="154" type="curve"/>
      <point x="153" y="154" type="line"/>
      <point x="109" y="122"/>
      <point x="59" y="92"/>
      <point x="15" y="67" type="curve"/>
      <point x="85" y="-85" type="line"/>
      <point x="139" y="-42"/>
      <point x="181" y="-6"/>
      <point x="222" y="30" type="curve"/>
      <point x="288" y="-47"/>
      <point x="367" y="-72"/>
      <point x="486" y="-77" type="curve" smooth="yes"/>
      <point x="611" y="-83"/>
      <point x="810" y="-81"/>
      <point x="937" y="-74" type="curve"/>
      <point x="944" y="-31"/>
      <point x="967" y="39"/>
      <point x="983" y="74" type="curve"/>
      <point x="839" y="61"/>
      <point x="611" y="58"/>
      <point x="489" y="63" type="curve" smooth="yes"/>
      <point x="391" y="67"/>
      <point x="323" y="92"/>
    </contour>
    <contour>
      <point x="145" y="832" type="curve"/>
      <point x="37" y="745" type="line"/>
      <point x="94" y="700"/>
      <point x="164" y="633"/>
      <point x="193" y="587" type="curve"/>
      <point x="309" y="683" type="line"/>
      <point x="275" y="729"/>
      <point x="202" y="791"/>
    </contour>
  </outline>
</glyph>
<glyph name="uni8FDB" format="2">
  <advance width="1000"/>
  <unicode hex="8FDB"/>
  <note>
cid40125
</note>
  <outline>
    <contour>
      <point x="936" y="559" type="line"/>
      <point x="936" y="699" type="line"/>
      <point x="341" y="699" type="line"/>
      <point x="341" y="559" type="line"/>
    </contour>
    <contour>
      <point x="591" y="513" type="curve" smooth="yes"/>
      <point x="591" y="830" type="line"/>
      <point x="447" y="830" type="line"/>
      <point x="447" y="515" type="line" smooth="yes"/>
      <point x="447" y="389"/>
      <point x="440" y="269"/>
      <point x="317" y="186" type="curve"/>
      <point x="346" y="165"/>
      <point x="401" y="107"/>
      <point x="420" y="78" type="curve"/>
      <point x="570" y="190"/>
      <point x="591" y="359"/>
    </contour>
    <contour>
      <point x="957" y="313" type="line"/>
      <point x="957" y="452" type="line"/>
      <point x="321" y="452" type="line"/>
      <point x="321" y="313" type="line"/>
    </contour>
    <contour>
      <point x="830" y="85" type="line"/>
      <point x="830" y="830" type="line"/>
      <point x="685" y="830" type="line"/>
      <point x="685" y="85" type="line"/>
    </contour>
    <contour>
      <point x="144" y="90" type="line"/>
      <point x="286" y="90" type="line"/>
      <point x="286" y="468" type="line"/>
      <point x="41" y="468" type="line"/>
      <point x="41" y="334" type="line"/>
      <point x="144" y="334" type="line"/>
    </contour>
    <contour>
      <point x="286" y="154" type="curve"/>
      <point x="153" y="154" type="line"/>
      <point x="109" y="122"/>
      <point x="59" y="92"/>
      <point x="15" y="67" type="curve"/>
      <point x="85" y="-85" type="line"/>
      <point x="139" y="-42"/>
      <point x="181" y="-6"/>
      <point x="222" y="30" type="curve"/>
      <point x="288" y="-47"/>
      <point x="367" y="-72"/>
      <point x="486" y="-77" type="curve" smooth="yes"/>
      <point x="611" y="-83"/>
      <point x="810" y="-81"/>
      <point x="937" y="-74" type="curve"/>
      <point x="944" y="-31"/>
      <point x="967" y="39"/>
      <point x="983" y="74" type="curve"/>
      <point x="839" y="61"/>
      <point x="611" y="58"/>
      <point x="489" y="63" type="curve" smooth="yes"/>
      <point x="391" y="67"/>
      <point x="323" y="92"/>
    </contour>
    <contour>
      <point x="145" y="832" type="curve"/>
      <point x="37" y="745" type="line"/>
      <point x="94" y="700"/>
      <point x="164" y="633"/>
      <point x="193" y="587" type="curve"/>
      <point x="309" y="683" type="line"/>
      <point x="275" y="729"/>
      <point x="202" y="791"/>
    </contour>
  </outline>
</glyph>
<glyph name="uni8FE9" format="2">
  <advance width="1000" height="1000"/>
  <unicode hex="8FE9"/>
  <note>
cid62865
</note>
  <outline>
    <contour>
      <point x="720" y="208" type="curve" smooth="yes"/>
      <point x="720" y="572" type="line"/>
      <point x="577" y="572" type="line"/>
      <point x="577" y="212" type="line" smooth="yes"/>
      <point x="577" y="200"/>
      <point x="573" y="197"/>
      <point x="560" y="197" type="curve" smooth="yes"/>
      <point x="547" y="197"/>
      <point x="504" y="197"/>
      <point x="471" y="198" type="curve"/>
      <point x="488" y="163"/>
      <point x="508" y="110"/>
      <point x="514" y="72" type="curve"/>
      <point x="578" y="72"/>
      <point x="628" y="74"/>
      <point x="669" y="94" type="curve" smooth="yes"/>
      <point x="710" y="114"/>
      <point x="720" y="147"/>
    </contour>
    <contour>
      <point x="584" y="822" type="curve"/>
      <point x="437" y="853" type="line"/>
      <point x="409" y="743"/>
      <point x="352" y="636"/>
      <point x="277" y="573" type="curve"/>
      <point x="312" y="554"/>
      <point x="375" y="512"/>
      <point x="403" y="488" type="curve"/>
      <point x="479" y="564"/>
      <point x="547" y="689"/>
    </contour>
    <contour>
      <point x="547" y="469" type="curve"/>
      <point x="410" y="498" type="line"/>
      <point x="389" y="403"/>
      <point x="347" y="306"/>
      <point x="292" y="247" type="curve"/>
      <point x="325" y="231"/>
      <point x="386" y="197"/>
      <point x="414" y="175" type="curve"/>
      <point x="468" y="245"/>
      <point x="519" y="357"/>
    </contour>
    <contour>
      <point x="870" y="508" type="curve"/>
      <point x="741" y="470" type="line"/>
      <point x="787" y="374"/>
      <point x="830" y="251"/>
      <point x="841" y="173" type="curve"/>
      <point x="982" y="218" type="line"/>
      <point x="967" y="299"/>
      <point x="919" y="417"/>
    </contour>
    <contour>
      <point x="902" y="606" type="line"/>
      <point x="902" y="740" type="line"/>
      <point x="438" y="740" type="line"/>
      <point x="438" y="606" type="line"/>
    </contour>
    <contour>
      <point x="887" y="745" type="line"/>
      <point x="864" y="740" type="line"/>
      <point x="843" y="740" type="line"/>
      <point x="843" y="719" type="line"/>
      <point x="836" y="658"/>
      <point x="822" y="587"/>
      <point x="806" y="535" type="curve"/>
      <point x="924" y="500" type="line"/>
      <point x="951" y="562"/>
      <point x="975" y="648"/>
      <point x="987" y="723" type="curve"/>
    </contour>
    <contour>
      <point x="144" y="90" type="line"/>
      <point x="286" y="90" type="line"/>
      <point x="286" y="468" type="line"/>
      <point x="41" y="468" type="line"/>
      <point x="41" y="334" type="line"/>
      <point x="144" y="334" type="line"/>
    </contour>
    <contour>
      <point x="286" y="154" type="curve"/>
      <point x="153" y="154" type="line"/>
      <point x="109" y="122"/>
      <point x="59" y="92"/>
      <point x="15" y="67" type="curve"/>
      <point x="85" y="-85" type="line"/>
      <point x="139" y="-42"/>
      <point x="181" y="-6"/>
      <point x="222" y="30" type="curve"/>
      <point x="288" y="-47"/>
      <point x="367" y="-72"/>
      <point x="486" y="-77" type="curve" smooth="yes"/>
      <point x="611" y="-83"/>
      <point x="810" y="-81"/>
      <point x="937" y="-74" type="curve"/>
      <point x="944" y="-31"/>
      <point x="967" y="39"/>
      <point x="983" y="74" type="curve"/>
      <point x="839" y="61"/>
      <point x="611" y="58"/>
      <point x="489" y="63" type="curve" smooth="yes"/>
      <point x="391" y="67"/>
      <point x="323" y="92"/>
    </contour>
    <contour>
      <point x="145" y="832" type="curve"/>
      <point x="37" y="745" type="line"/>
      <point x="94" y="700"/>
      <point x="164" y="633"/>
      <point x="193" y="587" type="curve"/>
      <point x="309" y="683" type="line"/>
      <point x="275" y="729"/>
      <point x="202" y="791"/>
    </contour>
  </outline>
</glyph>
<glyph name="uni8FF9" format="2">
  <advance width="1000" height="1000"/>
  <unicode hex="8FF9"/>
  <note>
cid40196
</note>
  <outline>
    <contour>
      <point x="903" y="577" type="curve"/>
      <point x="786" y="545" type="line"/>
      <point x="820" y="456"/>
      <point x="850" y="342"/>
      <point x="856" y="271" type="curve"/>
      <point x="982" y="308" type="line"/>
      <point x="974" y="381"/>
      <point x="940" y="491"/>
    </contour>
    <contour>
      <point x="958" y="626" type="line"/>
      <point x="958" y="757" type="line"/>
      <point x="336" y="757" type="line"/>
      <point x="336" y="626" type="line"/>
    </contour>
    <contour>
      <point x="716" y="678" type="line"/>
      <point x="716" y="854" type="line"/>
      <point x="573" y="854" type="line"/>
      <point x="573" y="678" type="line"/>
    </contour>
    <contour>
      <point x="625" y="519" type="curve" smooth="yes"/>
      <point x="625" y="668" type="line"/>
      <point x="494" y="668" type="line"/>
      <point x="494" y="521" type="line" smooth="yes"/>
      <point x="494" y="402"/>
      <point x="479" y="262"/>
      <point x="344" y="153" type="curve"/>
      <point x="379" y="134"/>
      <point x="431" y="93"/>
      <point x="456" y="66" type="curve"/>
      <point x="608" y="195"/>
      <point x="625" y="372"/>
    </contour>
    <contour>
      <point x="796" y="214" type="curve" smooth="yes"/>
      <point x="796" y="668" type="line"/>
      <point x="662" y="668" type="line"/>
      <point x="662" y="216" type="line" smooth="yes"/>
      <point x="662" y="205"/>
      <point x="658" y="202"/>
      <point x="647" y="202" type="curve" smooth="yes"/>
      <point x="635" y="202"/>
      <point x="599" y="202"/>
      <point x="569" y="203" type="curve"/>
      <point x="586" y="167"/>
      <point x="604" y="112"/>
      <point x="608" y="74" type="curve"/>
      <point x="668" y="74"/>
      <point x="714" y="77"/>
      <point x="750" y="98" type="curve" smooth="yes"/>
      <point x="787" y="119"/>
      <point x="796" y="154"/>
    </contour>
    <contour>
      <point x="499" y="551" type="curve"/>
      <point x="369" y="575" type="line"/>
      <point x="352" y="483"/>
      <point x="317" y="392"/>
      <point x="265" y="336" type="curve"/>
      <point x="297" y="322"/>
      <point x="356" y="293"/>
      <point x="383" y="274" type="curve"/>
      <point x="434" y="339"/>
      <point x="477" y="443"/>
    </contour>
    <contour>
      <point x="144" y="90" type="line"/>
      <point x="286" y="90" type="line"/>
      <point x="286" y="468" type="line"/>
      <point x="41" y="468" type="line"/>
      <point x="41" y="334" type="line"/>
      <point x="144" y="334" type="line"/>
    </contour>
    <contour>
      <point x="286" y="154" type="curve"/>
      <point x="153" y="154" type="line"/>
      <point x="109" y="122"/>
      <point x="59" y="92"/>
      <point x="15" y="67" type="curve"/>
      <point x="85" y="-85" type="line"/>
      <point x="139" y="-42"/>
      <point x="181" y="-6"/>
      <point x="222" y="30" type="curve"/>
      <point x="288" y="-47"/>
      <point x="367" y="-72"/>
      <point x="486" y="-77" type="curve" smooth="yes"/>
      <point x="611" y="-83"/>
      <point x="810" y="-81"/>
      <point x="937" y="-74" type="curve"/>
      <point x="944" y="-31"/>
      <point x="967" y="39"/>
      <point x="983" y="74" type="curve"/>
      <point x="839" y="61"/>
      <point x="611" y="58"/>
      <point x="489" y="63" type="curve" smooth="yes"/>
      <point x="391" y="67"/>
      <point x="323" y="92"/>
    </contour>
    <contour>
      <point x="145" y="832" type="curve"/>
      <point x="37" y="745" type="line"/>
      <point x="94" y="700"/>
      <point x="164" y="633"/>
      <point x="193" y="587" type="curve"/>
      <point x="309" y="683" type="line"/>
      <point x="275" y="729"/>
      <point x="202" y="791"/>
    </contour>
  </outline>
</glyph>
<glyph name="uni900D" format="2">
  <advance width="1000" height="1000"/>
  <unicode hex="900D"/>
  <note>
cid40248
</note>
  <outline>
    <contour>
      <point x="714" y="549" type="line"/>
      <point x="714" y="855" type="line"/>
      <point x="573" y="855" type="line"/>
      <point x="573" y="549" type="line"/>
    </contour>
    <contour>
      <point x="911" y="210" type="curve" smooth="yes"/>
      <point x="911" y="632" type="line"/>
      <point x="382" y="632" type="line"/>
      <point x="382" y="83" type="line"/>
      <point x="523" y="83" type="line"/>
      <point x="523" y="516" type="line"/>
      <point x="767" y="516" type="line"/>
      <point x="767" y="212" type="line" smooth="yes"/>
      <point x="767" y="200"/>
      <point x="763" y="196"/>
      <point x="750" y="196" type="curve" smooth="yes"/>
      <point x="738" y="196"/>
      <point x="696" y="195"/>
      <point x="665" y="198" type="curve"/>
      <point x="682" y="165"/>
      <point x="701" y="113"/>
      <point x="708" y="77" type="curve"/>
      <point x="771" y="77"/>
      <point x="821" y="79"/>
      <point x="860" y="98" type="curve" smooth="yes"/>
      <point x="899" y="118"/>
      <point x="911" y="150"/>
    </contour>
    <contour>
      <point x="462" y="833" type="curve"/>
      <point x="341" y="790" type="line"/>
      <point x="374" y="740"/>
      <point x="405" y="669"/>
      <point x="413" y="625" type="curve"/>
      <point x="541" y="676" type="line"/>
      <point x="530" y="722"/>
      <point x="497" y="786"/>
    </contour>
    <contour>
      <point x="949" y="788" type="curve"/>
      <point x="819" y="833" type="line"/>
      <point x="802" y="782"/>
      <point x="769" y="714"/>
      <point x="742" y="671" type="curve"/>
      <point x="860" y="629" type="line"/>
      <point x="887" y="669"/>
      <point x="919" y="727"/>
    </contour>
    <contour>
      <point x="822" y="377" type="line"/>
      <point x="822" y="481" type="line"/>
      <point x="461" y="481" type="line"/>
      <point x="461" y="377" type="line"/>
    </contour>
    <contour>
      <point x="823" y="232" type="line"/>
      <point x="823" y="343" type="line"/>
      <point x="462" y="343" type="line"/>
      <point x="462" y="232" type="line"/>
    </contour>
    <contour>
      <point x="144" y="90" type="line"/>
      <point x="286" y="90" type="line"/>
      <point x="286" y="468" type="line"/>
      <point x="41" y="468" type="line"/>
      <point x="41" y="334" type="line"/>
      <point x="144" y="334" type="line"/>
    </contour>
    <contour>
      <point x="286" y="154" type="curve"/>
      <point x="153" y="154" type="line"/>
      <point x="109" y="122"/>
      <point x="59" y="92"/>
      <point x="15" y="67" type="curve"/>
      <point x="85" y="-85" type="line"/>
      <point x="139" y="-42"/>
      <point x="181" y="-6"/>
      <point x="222" y="30" type="curve"/>
      <point x="288" y="-47"/>
      <point x="367" y="-72"/>
      <point x="486" y="-77" type="curve" smooth="yes"/>
      <point x="611" y="-83"/>
      <point x="810" y="-81"/>
      <point x="937" y="-74" type="curve"/>
      <point x="944" y="-31"/>
      <point x="967" y="39"/>
      <point x="983" y="74" type="curve"/>
      <point x="839" y="61"/>
      <point x="611" y="58"/>
      <point x="489" y="63" type="curve" smooth="yes"/>
      <point x="391" y="67"/>
      <point x="323" y="92"/>
    </contour>
    <contour>
      <point x="145" y="832" type="curve"/>
      <point x="37" y="745" type="line"/>
      <point x="94" y="700"/>
      <point x="164" y="633"/>
      <point x="193" y="587" type="curve"/>
      <point x="309" y="683" type="line"/>
      <point x="275" y="729"/>
      <point x="202" y="791"/>
    </contour>
  </outline>
</glyph>
<glyph name="uni9012" format="2">
  <advance width="1000" height="1000"/>
  <unicode hex="9012"/>
  <note>
cid40263
</note>
  <outline>
    <contour>
      <point x="859" y="307" type="line"/>
      <point x="859" y="419" type="line"/>
      <point x="404" y="419" type="line"/>
      <point x="404" y="307" type="line"/>
    </contour>
    <contour>
      <point x="952" y="419" type="curve"/>
      <point x="826" y="419" type="line"/>
      <point x="826" y="404" type="line" smooth="yes"/>
      <point x="823" y="302"/>
      <point x="819" y="262"/>
      <point x="809" y="251" type="curve" smooth="yes"/>
      <point x="801" y="243"/>
      <point x="792" y="241"/>
      <point x="779" y="241" type="curve" smooth="yes"/>
      <point x="763" y="241"/>
      <point x="733" y="242"/>
      <point x="699" y="245" type="curve"/>
      <point x="718" y="214"/>
      <point x="732" y="165"/>
      <point x="735" y="128" type="curve"/>
      <point x="779" y="127"/>
      <point x="821" y="128"/>
      <point x="845" y="132" type="curve" smooth="yes"/>
      <point x="874" y="136"/>
      <point x="896" y="144"/>
      <point x="916" y="168" type="curve" smooth="yes"/>
      <point x="938" y="193"/>
      <point x="946" y="255"/>
      <point x="950" y="376" type="curve" smooth="yes"/>
      <point x="951" y="391"/>
      <point x="952" y="419"/>
    </contour>
    <contour>
      <point x="918" y="462" type="line"/>
      <point x="918" y="737" type="line"/>
      <point x="334" y="737" type="line"/>
      <point x="334" y="622" type="line"/>
      <point x="797" y="622" type="line"/>
      <point x="797" y="577" type="line"/>
      <point x="443" y="577" type="line"/>
      <point x="443" y="462" type="line"/>
    </contour>
    <contour>
      <point x="483" y="577" type="curve"/>
      <point x="354" y="577" type="line"/>
      <point x="344" y="482"/>
      <point x="324" y="365"/>
      <point x="306" y="287" type="curve"/>
      <point x="432" y="276" type="line"/>
      <point x="449" y="354"/>
      <point x="469" y="475"/>
    </contour>
    <contour>
      <point x="653" y="328" type="curve"/>
      <point x="536" y="369" type="line"/>
      <point x="485" y="300"/>
      <point x="387" y="233"/>
      <point x="286" y="194" type="curve"/>
      <point x="312" y="172"/>
      <point x="354" y="125"/>
      <point x="373" y="97" type="curve"/>
      <point x="484" y="148"/>
      <point x="586" y="226"/>
    </contour>
    <contour>
      <point x="695" y="81" type="line"/>
      <point x="695" y="684" type="line"/>
      <point x="551" y="684" type="line"/>
      <point x="551" y="81" type="line"/>
    </contour>
    <contour>
      <point x="517" y="856" type="curve"/>
      <point x="397" y="815" type="line"/>
      <point x="419" y="781"/>
      <point x="439" y="733"/>
      <point x="446" y="698" type="curve"/>
      <point x="572" y="747" type="line"/>
      <point x="563" y="780"/>
      <point x="540" y="825"/>
    </contour>
    <contour>
      <point x="871" y="823" type="curve"/>
      <point x="724" y="858" type="line"/>
      <point x="713" y="823"/>
      <point x="694" y="777"/>
      <point x="678" y="746" type="curve"/>
      <point x="795" y="712" type="line"/>
      <point x="816" y="740"/>
      <point x="845" y="783"/>
    </contour>
    <contour>
      <point x="138" y="91" type="line"/>
      <point x="277" y="91" type="line"/>
      <point x="277" y="468" type="line"/>
      <point x="35" y="468" type="line"/>
      <point x="35" y="334" type="line"/>
      <point x="138" y="334" type="line"/>
    </contour>
    <contour>
      <point x="277" y="148" type="curve"/>
      <point x="151" y="148" type="line"/>
      <point x="109" y="115"/>
      <point x="62" y="84"/>
      <point x="21" y="59" type="curve"/>
      <point x="88" y="-86" type="line"/>
      <point x="139" y="-43"/>
      <point x="178" y="-8"/>
      <point x="216" y="29" type="curve"/>
      <point x="275" y="-47"/>
      <point x="350" y="-73"/>
      <point x="463" y="-78" type="curve" smooth="yes"/>
      <point x="591" y="-84"/>
      <point x="804" y="-82"/>
      <point x="935" y="-75" type="curve"/>
      <point x="942" y="-34"/>
      <point x="964" y="33"/>
      <point x="980" y="66" type="curve"/>
      <point x="831" y="53"/>
      <point x="590" y="50"/>
      <point x="465" y="56" type="curve" smooth="yes"/>
      <point x="371" y="60"/>
      <point x="310" y="86"/>
    </contour>
    <contour>
      <point x="145" y="829" type="curve"/>
      <point x="34" y="747" type="line"/>
      <point x="88" y="698"/>
      <point x="154" y="629"/>
      <point x="181" y="581" type="curve"/>
      <point x="301" y="673" type="line"/>
      <point x="269" y="720"/>
      <point x="200" y="785"/>
    </contour>
  </outline>
</glyph>
<glyph name="uni903E" format="2">
  <advance width="1000" height="1000"/>
  <unicode hex="903E"/>
  <note>
cid40379
</note>
  <outline>
    <contour>
      <point x="624" y="741" type="curve"/>
      <point x="684" y="671"/>
      <point x="801" y="589"/>
      <point x="898" y="547" type="curve"/>
      <point x="919" y="587"/>
      <point x="950" y="637"/>
      <point x="979" y="671" type="curve"/>
      <point x="871" y="702"/>
      <point x="768" y="772"/>
      <point x="690" y="855" type="curve"/>
      <point x="548" y="855" type="line"/>
      <point x="495" y="784"/>
      <point x="391" y="702"/>
      <point x="287" y="663" type="curve"/>
      <point x="312" y="633"/>
      <point x="344" y="581"/>
      <point x="359" y="547" type="curve"/>
      <point x="462" y="591"/>
      <point x="566" y="671"/>
    </contour>
    <contour>
      <point x="790" y="559" type="line"/>
      <point x="790" y="658" type="line"/>
      <point x="459" y="658" type="line"/>
      <point x="459" y="559" type="line"/>
    </contour>
    <contour>
      <point x="777" y="224" type="line"/>
      <point x="777" y="507" type="line"/>
      <point x="667" y="507" type="line"/>
      <point x="667" y="224" type="line"/>
    </contour>
    <contour>
      <point x="924" y="182" type="curve" smooth="yes"/>
      <point x="924" y="532" type="line"/>
      <point x="808" y="532" type="line"/>
      <point x="808" y="184" type="line" smooth="yes"/>
      <point x="808" y="175"/>
      <point x="803" y="172"/>
      <point x="792" y="172" type="curve" smooth="yes"/>
      <point x="781" y="172"/>
      <point x="743" y="172"/>
      <point x="712" y="173" type="curve"/>
      <point x="725" y="147"/>
      <point x="740" y="106"/>
      <point x="744" y="79" type="curve"/>
      <point x="804" y="79"/>
      <point x="849" y="81"/>
      <point x="881" y="96" type="curve" smooth="yes"/>
      <point x="915" y="112"/>
      <point x="924" y="137"/>
    </contour>
    <contour>
      <point x="638" y="180" type="curve" smooth="yes"/>
      <point x="638" y="528" type="line"/>
      <point x="340" y="528" type="line"/>
      <point x="340" y="80" type="line"/>
      <point x="457" y="80" type="line"/>
      <point x="457" y="433" type="line"/>
      <point x="520" y="433" type="line"/>
      <point x="520" y="181" type="line" smooth="yes"/>
      <point x="520" y="173"/>
      <point x="517" y="170"/>
      <point x="509" y="170" type="curve" smooth="yes"/>
      <point x="504" y="170"/>
      <point x="487" y="170"/>
      <point x="473" y="171" type="curve"/>
      <point x="485" y="146"/>
      <point x="499" y="106"/>
      <point x="503" y="78" type="curve"/>
      <point x="545" y="78"/>
      <point x="578" y="80"/>
      <point x="604" y="95" type="curve" smooth="yes"/>
      <point x="632" y="111"/>
      <point x="638" y="135"/>
    </contour>
    <contour>
      <point x="569" y="319" type="line"/>
      <point x="569" y="407" type="line"/>
      <point x="392" y="407" type="line"/>
      <point x="392" y="319" type="line"/>
    </contour>
    <contour>
      <point x="569" y="203" type="line"/>
      <point x="569" y="291" type="line"/>
      <point x="392" y="291" type="line"/>
      <point x="392" y="203" type="line"/>
    </contour>
    <contour>
      <point x="138" y="96" type="line"/>
      <point x="277" y="96" type="line"/>
      <point x="277" y="473" type="line"/>
      <point x="35" y="473" type="line"/>
      <point x="35" y="339" type="line"/>
      <point x="138" y="339" type="line"/>
    </contour>
    <contour>
      <point x="277" y="148" type="curve"/>
      <point x="151" y="148" type="line"/>
      <point x="109" y="115"/>
      <point x="62" y="84"/>
      <point x="21" y="59" type="curve"/>
      <point x="88" y="-86" type="line"/>
      <point x="139" y="-43"/>
      <point x="178" y="-8"/>
      <point x="216" y="29" type="curve"/>
      <point x="275" y="-47"/>
      <point x="350" y="-73"/>
      <point x="463" y="-78" type="curve" smooth="yes"/>
      <point x="591" y="-84"/>
      <point x="804" y="-82"/>
      <point x="935" y="-75" type="curve"/>
      <point x="942" y="-34"/>
      <point x="964" y="33"/>
      <point x="980" y="66" type="curve"/>
      <point x="831" y="53"/>
      <point x="590" y="50"/>
      <point x="465" y="56" type="curve" smooth="yes"/>
      <point x="371" y="60"/>
      <point x="310" y="86"/>
    </contour>
    <contour>
      <point x="145" y="842" type="curve"/>
      <point x="34" y="760" type="line"/>
      <point x="88" y="711"/>
      <point x="154" y="642"/>
      <point x="181" y="594" type="curve"/>
      <point x="301" y="686" type="line"/>
      <point x="269" y="733"/>
      <point x="200" y="798"/>
    </contour>
  </outline>
</glyph>
<glyph name="uni9065" format="2">
  <advance width="1000" height="1000"/>
  <unicode hex="9065"/>
  <note>
cid40489
</note>
  <outline>
    <contour>
      <point x="465" y="701" type="curve"/>
      <point x="355" y="661" type="line"/>
      <point x="377" y="622"/>
      <point x="398" y="571"/>
      <point x="404" y="538" type="curve"/>
      <point x="520" y="581" type="line"/>
      <point x="513" y="615"/>
      <point x="489" y="664"/>
    </contour>
    <contour>
      <point x="640" y="712" type="curve"/>
      <point x="528" y="682" type="line"/>
      <point x="547" y="643"/>
      <point x="564" y="590"/>
      <point x="566" y="557" type="curve"/>
      <point x="685" y="590" type="line"/>
      <point x="681" y="624"/>
      <point x="661" y="674"/>
    </contour>
    <contour>
      <point x="903" y="686" type="curve"/>
      <point x="772" y="732" type="line"/>
      <point x="759" y="682"/>
      <point x="732" y="615"/>
      <point x="710" y="571" type="curve"/>
      <point x="814" y="530" type="line"/>
      <point x="839" y="569"/>
      <point x="870" y="628"/>
    </contour>
    <contour>
      <point x="928" y="765" type="curve"/>
      <point x="837" y="856" type="line"/>
      <point x="721" y="826"/>
      <point x="516" y="804"/>
      <point x="306" y="799" type="curve"/>
      <point x="319" y="773"/>
      <point x="334" y="726"/>
      <point x="338" y="698" type="curve"/>
      <point x="560" y="702"/>
      <point x="787" y="728"/>
    </contour>
    <contour>
      <point x="953" y="282" type="line"/>
      <point x="953" y="388" type="line"/>
      <point x="320" y="388" type="line"/>
      <point x="320" y="282" type="line"/>
    </contour>
    <contour>
      <point x="916" y="421" type="line"/>
      <point x="916" y="526" type="line"/>
      <point x="419" y="526" type="line"/>
      <point x="419" y="421" type="line"/>
    </contour>
    <contour>
      <point x="493" y="191" type="line"/>
      <point x="493" y="261" type="line"/>
      <point x="360" y="261" type="line"/>
      <point x="360" y="84" type="line"/>
      <point x="906" y="84" type="line"/>
      <point x="906" y="261" type="line"/>
      <point x="771" y="261" type="line"/>
      <point x="771" y="191" type="line"/>
    </contour>
    <contour>
      <point x="700" y="150" type="line"/>
      <point x="700" y="484" type="line"/>
      <point x="559" y="484" type="line"/>
      <point x="559" y="150" type="line"/>
    </contour>
    <contour>
      <point x="538" y="556" type="curve"/>
      <point x="415" y="586" type="line"/>
      <point x="394" y="529"/>
      <point x="354" y="469"/>
      <point x="309" y="430" type="curve"/>
      <point x="340" y="418"/>
      <point x="395" y="392"/>
      <point x="423" y="373" type="curve"/>
      <point x="465" y="417"/>
      <point x="511" y="487"/>
    </contour>
    <contour>
      <point x="138" y="91" type="line"/>
      <point x="277" y="91" type="line"/>
      <point x="277" y="468" type="line"/>
      <point x="35" y="468" type="line"/>
      <point x="35" y="334" type="line"/>
      <point x="138" y="334" type="line"/>
    </contour>
    <contour>
      <point x="277" y="148" type="curve"/>
      <point x="151" y="148" type="line"/>
      <point x="109" y="115"/>
      <point x="62" y="84"/>
      <point x="21" y="59" type="curve"/>
      <point x="88" y="-86" type="line"/>
      <point x="139" y="-43"/>
      <point x="178" y="-8"/>
      <point x="216" y="29" type="curve"/>
      <point x="275" y="-47"/>
      <point x="350" y="-73"/>
      <point x="463" y="-78" type="curve" smooth="yes"/>
      <point x="591" y="-84"/>
      <point x="804" y="-82"/>
      <point x="935" y="-75" type="curve"/>
      <point x="942" y="-34"/>
      <point x="964" y="33"/>
      <point x="980" y="66" type="curve"/>
      <point x="831" y="53"/>
      <point x="590" y="50"/>
      <point x="465" y="56" type="curve" smooth="yes"/>
      <point x="371" y="60"/>
      <point x="310" y="86"/>
    </contour>
    <contour>
      <point x="145" y="829" type="curve"/>
      <point x="34" y="747" type="line"/>
      <point x="88" y="698"/>
      <point x="154" y="629"/>
      <point x="181" y="581" type="curve"/>
      <point x="301" y="673" type="line"/>
      <point x="269" y="720"/>
      <point x="200" y="785"/>
    </contour>
  </outline>
</glyph>
<glyph name="uni90BB" format="2">
  <advance width="1000" height="1000"/>
  <unicode hex="90BB"/>
  <note>
cid40677
</note>
  <outline>
    <contour>
      <point x="309" y="817" type="line"/>
      <point x="309" y="844" type="line"/>
      <point x="222" y="844" type="line"/>
      <point x="183" y="754"/>
      <point x="113" y="647"/>
      <point x="11" y="568" type="curve"/>
      <point x="44" y="543"/>
      <point x="86" y="496"/>
      <point x="107" y="461" type="curve"/>
      <point x="227" y="564"/>
      <point x="300" y="683"/>
      <point x="352" y="772" type="curve"/>
      <point x="352" y="817" type="line"/>
    </contour>
    <contour>
      <point x="358" y="844" type="curve"/>
      <point x="251" y="844" type="line"/>
      <point x="251" y="737" type="line"/>
      <point x="276" y="737" type="line"/>
      <point x="344" y="679"/>
      <point x="433" y="573"/>
      <point x="474" y="514" type="curve"/>
      <point x="582" y="616" type="line"/>
      <point x="529" y="681"/>
      <point x="431" y="777"/>
    </contour>
    <contour>
      <point x="862" y="663" type="line"/>
      <point x="862" y="799" type="line"/>
      <point x="573" y="799" type="line"/>
      <point x="573" y="-95" type="line"/>
      <point x="714" y="-95" type="line"/>
      <point x="714" y="663" type="line"/>
    </contour>
    <contour>
      <point x="875" y="804" type="line"/>
      <point x="854" y="799" type="line"/>
      <point x="826" y="799" type="line"/>
      <point x="826" y="748" type="line"/>
      <point x="809" y="681"/>
      <point x="767" y="519"/>
      <point x="734" y="425" type="curve"/>
      <point x="802" y="352"/>
      <point x="820" y="281"/>
      <point x="820" y="231" type="curve" smooth="yes"/>
      <point x="820" y="198"/>
      <point x="813" y="179"/>
      <point x="798" y="170" type="curve" smooth="yes"/>
      <point x="788" y="163"/>
      <point x="774" y="161"/>
      <point x="761" y="161" type="curve" smooth="yes"/>
      <point x="747" y="161"/>
      <point x="732" y="161"/>
      <point x="711" y="163" type="curve"/>
      <point x="734" y="123"/>
      <point x="747" y="61"/>
      <point x="748" y="22" type="curve"/>
      <point x="778" y="21"/>
      <point x="807" y="22"/>
      <point x="828" y="25" type="curve" smooth="yes"/>
      <point x="856" y="29"/>
      <point x="880" y="38"/>
      <point x="900" y="53" type="curve" smooth="yes"/>
      <point x="941" y="81"/>
      <point x="959" y="132"/>
      <point x="959" y="213" type="curve" smooth="yes"/>
      <point x="959" y="276"/>
      <point x="948" y="355"/>
      <point x="874" y="442" type="curve"/>
      <point x="909" y="528"/>
      <point x="949" y="641"/>
      <point x="981" y="739" type="curve"/>
    </contour>
    <contour>
      <point x="211" y="219" type="curve"/>
      <point x="119" y="129" type="line"/>
      <point x="215" y="53"/>
      <point x="314" y="-39"/>
      <point x="359" y="-95" type="curve"/>
      <point x="456" y="11" type="line"/>
      <point x="408" y="61"/>
      <point x="303" y="151"/>
    </contour>
    <contour>
      <point x="433" y="271" type="line"/>
      <point x="433" y="401" type="line"/>
      <point x="90" y="401" type="line"/>
      <point x="90" y="271" type="line"/>
    </contour>
    <contour>
      <point x="434" y="410" type="line"/>
      <point x="414" y="401" type="line"/>
      <point x="392" y="401" type="line"/>
      <point x="392" y="367" type="line"/>
      <point x="366" y="288"/>
      <point x="305" y="190"/>
      <point x="238" y="111" type="curve"/>
      <point x="268" y="94"/>
      <point x="320" y="52"/>
      <point x="343" y="27" type="curve"/>
      <point x="413" y="111"/>
      <point x="489" y="237"/>
      <point x="539" y="354" type="curve"/>
    </contour>
    <contour>
      <point x="276" y="601" type="curve"/>
      <point x="192" y="516" type="line"/>
      <point x="244" y="486"/>
      <point x="310" y="438"/>
      <point x="340" y="405" type="curve"/>
      <point x="430" y="499" type="line"/>
      <point x="397" y="533"/>
      <point x="328" y="575"/>
    </contour>
  </outline>
</glyph>
<glyph name="uni949F" format="2">
  <advance width="1000" height="1000"/>
  <unicode hex="949F"/>
  <note>
cid42608
</note>
  <outline>
    <contour>
      <point x="963" y="171" type="line"/>
      <point x="963" y="661" type="line"/>
      <point x="436" y="661" type="line"/>
      <point x="436" y="162" type="line"/>
      <point x="567" y="162" type="line"/>
      <point x="567" y="521" type="line"/>
      <point x="825" y="521" type="line"/>
      <point x="825" y="171" type="line"/>
    </contour>
    <contour>
      <point x="767" y="-97" type="line"/>
      <point x="767" y="853" type="line"/>
      <point x="624" y="853" type="line"/>
      <point x="624" y="-97" type="line"/>
    </contour>
    <contour>
      <point x="892" y="224" type="line"/>
      <point x="892" y="364" type="line"/>
      <point x="513" y="364" type="line"/>
      <point x="513" y="224" type="line"/>
    </contour>
    <contour>
      <point x="283" y="834" type="curve"/>
      <point x="150" y="860" type="line"/>
      <point x="126" y="770"/>
      <point x="73" y="677"/>
      <point x="11" y="619" type="curve"/>
      <point x="45" y="589"/>
      <point x="87" y="542"/>
      <point x="104" y="512" type="curve"/>
      <point x="181" y="586"/>
      <point x="250" y="710"/>
    </contour>
    <contour>
      <point x="416" y="629" type="line"/>
      <point x="416" y="767" type="line"/>
      <point x="166" y="767" type="line"/>
      <point x="142" y="629" type="line"/>
    </contour>
    <contour>
      <point x="401" y="447" type="line"/>
      <point x="401" y="576" type="line"/>
      <point x="103" y="576" type="line"/>
      <point x="103" y="447" type="line"/>
    </contour>
    <contour>
      <point x="417" y="241" type="line"/>
      <point x="417" y="370" type="line"/>
      <point x="50" y="370" type="line"/>
      <point x="50" y="241" type="line"/>
    </contour>
    <contour>
      <point x="312" y="60" type="line"/>
      <point x="312" y="561" type="line"/>
      <point x="174" y="561" type="line"/>
      <point x="174" y="10" type="line"/>
    </contour>
    <contour>
      <point x="102" y="35" type="curve"/>
      <point x="169" y="-97" type="line"/>
      <point x="248" y="-61"/>
      <point x="349" y="-14"/>
      <point x="432" y="26" type="curve"/>
      <point x="398" y="147" type="line"/>
      <point x="301" y="109"/>
      <point x="186" y="66"/>
    </contour>
  </outline>
</glyph>
<glyph name="uni94A2" format="2">
  <advance width="1000" height="1000"/>
  <unicode hex="94A2"/>
  <note>
cid42611
</note>
  <outline>
    <contour>
      <point x="612" y="572" type="curve"/>
      <point x="519" y="508" type="line"/>
      <point x="604" y="384"/>
      <point x="692" y="221"/>
      <point x="729" y="117" type="curve"/>
      <point x="829" y="188" type="line"/>
      <point x="790" y="288"/>
      <point x="699" y="449"/>
    </contour>
    <contour>
      <point x="816" y="626" type="curve"/>
      <point x="700" y="642" type="line"/>
      <point x="672" y="429"/>
      <point x="600" y="228"/>
      <point x="514" y="121" type="curve"/>
      <point x="538" y="102"/>
      <point x="583" y="59"/>
      <point x="602" y="37" type="curve"/>
      <point x="702" y="158"/>
      <point x="784" y="385"/>
    </contour>
    <contour>
      <point x="283" y="834" type="curve"/>
      <point x="150" y="860" type="line"/>
      <point x="126" y="770"/>
      <point x="73" y="677"/>
      <point x="11" y="619" type="curve"/>
      <point x="45" y="589"/>
      <point x="87" y="542"/>
      <point x="104" y="512" type="curve"/>
      <point x="181" y="586"/>
      <point x="250" y="710"/>
    </contour>
    <contour>
      <point x="391" y="629" type="line"/>
      <point x="391" y="767" type="line"/>
      <point x="166" y="767" type="line"/>
      <point x="142" y="629" type="line"/>
    </contour>
    <contour>
      <point x="376" y="447" type="line"/>
      <point x="376" y="576" type="line"/>
      <point x="103" y="576" type="line"/>
      <point x="103" y="447" type="line"/>
    </contour>
    <contour>
      <point x="397" y="241" type="line"/>
      <point x="397" y="370" type="line"/>
      <point x="50" y="370" type="line"/>
      <point x="50" y="241" type="line"/>
    </contour>
    <contour>
      <point x="307" y="60" type="line"/>
      <point x="307" y="561" type="line"/>
      <point x="169" y="561" type="line"/>
      <point x="169" y="10" type="line"/>
    </contour>
    <contour>
      <point x="92" y="35" type="curve"/>
      <point x="159" y="-97" type="line"/>
      <point x="234" y="-64"/>
      <point x="328" y="-20"/>
      <point x="402" y="18" type="curve"/>
      <point x="368" y="139" type="line"/>
      <point x="281" y="105"/>
      <point x="174" y="65"/>
    </contour>
    <contour>
      <point x="872" y="664" type="line"/>
      <point x="872" y="804" type="line"/>
      <point x="412" y="804" type="line"/>
      <point x="412" y="-94" type="line"/>
      <point x="541" y="-94" type="line"/>
      <point x="541" y="664" type="line"/>
    </contour>
    <contour>
      <point x="947" y="63" type="curve" smooth="yes"/>
      <point x="947" y="804" type="line"/>
      <point x="813" y="804" type="line"/>
      <point x="813" y="66" type="line" smooth="yes"/>
      <point x="813" y="50"/>
      <point x="808" y="45"/>
      <point x="793" y="45" type="curve" smooth="yes"/>
      <point x="778" y="45"/>
      <point x="729" y="45"/>
      <point x="689" y="48" type="curve"/>
      <point x="707" y="11"/>
      <point x="726" y="-55"/>
      <point x="729" y="-94" type="curve"/>
      <point x="806" y="-94"/>
      <point x="858" y="-90"/>
      <point x="897" y="-67" type="curve" smooth="yes"/>
      <point x="936" y="-44"/>
      <point x="947" y="-4"/>
    </contour>
  </outline>
</glyph>
<glyph name="uni94C1" format="2">
  <advance width="1000" height="1000"/>
  <unicode hex="94C1"/>
  <note>
cid42642
</note>
  <outline>
    <contour>
      <point x="974" y="304" type="line"/>
      <point x="974" y="438" type="line"/>
      <point x="437" y="438" type="line"/>
      <point x="437" y="304" type="line"/>
    </contour>
    <contour>
      <point x="949" y="558" type="line"/>
      <point x="949" y="692" type="line"/>
      <point x="539" y="692" type="line"/>
      <point x="512" y="558" type="line"/>
    </contour>
    <contour>
      <point x="618" y="793" type="curve"/>
      <point x="486" y="815" type="line"/>
      <point x="471" y="699"/>
      <point x="439" y="581"/>
      <point x="388" y="510" type="curve"/>
      <point x="420" y="496"/>
      <point x="479" y="464"/>
      <point x="506" y="444" type="curve"/>
      <point x="557" y="527"/>
      <point x="598" y="659"/>
    </contour>
    <contour>
      <point x="782" y="517" type="curve" smooth="yes"/>
      <point x="782" y="848" type="line"/>
      <point x="641" y="848" type="line"/>
      <point x="641" y="518" type="line" smooth="yes"/>
      <point x="641" y="353"/>
      <point x="624" y="139"/>
      <point x="397" y="9" type="curve"/>
      <point x="432" y="-17"/>
      <point x="479" y="-68"/>
      <point x="500" y="-98" type="curve"/>
      <point x="737" y="62"/>
      <point x="782" y="314"/>
    </contour>
    <contour>
      <point x="772" y="357" type="curve"/>
      <point x="653" y="333" type="line"/>
      <point x="695" y="144"/>
      <point x="764" y="-12"/>
      <point x="896" y="-99" type="curve"/>
      <point x="917" y="-61"/>
      <point x="961" y="-5"/>
      <point x="993" y="22" type="curve"/>
      <point x="876" y="85"/>
      <point x="806" y="214"/>
    </contour>
    <contour>
      <point x="283" y="834" type="curve"/>
      <point x="150" y="860" type="line"/>
      <point x="126" y="770"/>
      <point x="73" y="677"/>
      <point x="11" y="619" type="curve"/>
      <point x="45" y="589"/>
      <point x="87" y="542"/>
      <point x="104" y="512" type="curve"/>
      <point x="181" y="586"/>
      <point x="250" y="710"/>
    </contour>
    <contour>
      <point x="416" y="629" type="line"/>
      <point x="416" y="767" type="line"/>
      <point x="166" y="767" type="line"/>
      <point x="142" y="629" type="line"/>
    </contour>
    <contour>
      <point x="401" y="447" type="line"/>
      <point x="401" y="576" type="line"/>
      <point x="103" y="576" type="line"/>
      <point x="103" y="447" type="line"/>
    </contour>
    <contour>
      <point x="417" y="241" type="line"/>
      <point x="417" y="370" type="line"/>
      <point x="50" y="370" type="line"/>
      <point x="50" y="241" type="line"/>
    </contour>
    <contour>
      <point x="312" y="60" type="line"/>
      <point x="312" y="561" type="line"/>
      <point x="174" y="561" type="line"/>
      <point x="174" y="10" type="line"/>
    </contour>
    <contour>
      <point x="97" y="35" type="curve"/>
      <point x="167" y="-95" type="line"/>
      <point x="250" y="-56"/>
      <point x="351" y="-5"/>
      <point x="429" y="37" type="curve"/>
      <point x="392" y="157" type="line"/>
      <point x="299" y="115"/>
      <point x="185" y="68"/>
    </contour>
  </outline>
</glyph>
<glyph name="uni94DC" format="2">
  <advance width="1000" height="1000"/>
  <unicode hex="94DC"/>
  <note>
cid42669
</note>
  <outline>
    <contour>
      <point x="283" y="834" type="curve"/>
      <point x="150" y="860" type="line"/>
      <point x="126" y="770"/>
      <point x="73" y="677"/>
      <point x="11" y="619" type="curve"/>
      <point x="45" y="589"/>
      <point x="87" y="542"/>
      <point x="104" y="512" type="curve"/>
      <point x="181" y="586"/>
      <point x="250" y="710"/>
    </contour>
    <contour>
      <point x="391" y="629" type="line"/>
      <point x="391" y="767" type="line"/>
      <point x="166" y="767" type="line"/>
      <point x="142" y="629" type="line"/>
    </contour>
    <contour>
      <point x="376" y="447" type="line"/>
      <point x="376" y="576" type="line"/>
      <point x="103" y="576" type="line"/>
      <point x="103" y="447" type="line"/>
    </contour>
    <contour>
      <point x="397" y="241" type="line"/>
      <point x="397" y="370" type="line"/>
      <point x="50" y="370" type="line"/>
      <point x="50" y="241" type="line"/>
    </contour>
    <contour>
      <point x="307" y="60" type="line"/>
      <point x="307" y="561" type="line"/>
      <point x="169" y="561" type="line"/>
      <point x="169" y="10" type="line"/>
    </contour>
    <contour>
      <point x="92" y="35" type="curve"/>
      <point x="159" y="-97" type="line"/>
      <point x="234" y="-64"/>
      <point x="328" y="-20"/>
      <point x="402" y="18" type="curve"/>
      <point x="368" y="139" type="line"/>
      <point x="281" y="105"/>
      <point x="174" y="65"/>
    </contour>
    <contour>
      <point x="880" y="687" type="line"/>
      <point x="880" y="818" type="line"/>
      <point x="413" y="818" type="line"/>
      <point x="413" y="-96" type="line"/>
      <point x="542" y="-96" type="line"/>
      <point x="542" y="687" type="line"/>
    </contour>
    <contour>
      <point x="955" y="56" type="curve" smooth="yes"/>
      <point x="955" y="818" type="line"/>
      <point x="822" y="818" type="line"/>
      <point x="822" y="59" type="line" smooth="yes"/>
      <point x="822" y="45"/>
      <point x="818" y="41"/>
      <point x="806" y="41" type="curve" smooth="yes"/>
      <point x="793" y="40"/>
      <point x="755" y="40"/>
      <point x="722" y="42" type="curve"/>
      <point x="740" y="6"/>
      <point x="756" y="-58"/>
      <point x="760" y="-96" type="curve"/>
      <point x="827" y="-96"/>
      <point x="873" y="-92"/>
      <point x="910" y="-69" type="curve" smooth="yes"/>
      <point x="946" y="-46"/>
      <point x="955" y="-7"/>
    </contour>
    <contour>
      <point x="801" y="516" type="line"/>
      <point x="801" y="635" type="line"/>
      <point x="558" y="635" type="line"/>
      <point x="558" y="516" type="line"/>
    </contour>
    <contour>
      <point x="662" y="94" type="line"/>
      <point x="662" y="459" type="line"/>
      <point x="564" y="459" type="line"/>
      <point x="564" y="94" type="line"/>
    </contour>
    <contour>
      <point x="794" y="138" type="line"/>
      <point x="794" y="459" type="line"/>
      <point x="619" y="459" type="line"/>
      <point x="619" y="350" type="line"/>
      <point x="695" y="350" type="line"/>
      <point x="695" y="247" type="line"/>
      <point x="619" y="247" type="line"/>
      <point x="619" y="138" type="line"/>
    </contour>
  </outline>
</glyph>
<glyph name="uni94F6" format="2">
  <advance width="1000" height="1000"/>
  <unicode hex="94F6"/>
  <note>
cid42695
</note>
  <outline>
    <contour>
      <point x="609" y="23" type="line"/>
      <point x="609" y="817" type="line"/>
      <point x="469" y="817" type="line"/>
      <point x="469" y="-6" type="line"/>
    </contour>
    <contour>
      <point x="926" y="331" type="line"/>
      <point x="926" y="817" type="line"/>
      <point x="544" y="817" type="line"/>
      <point x="544" y="691" type="line"/>
      <point x="785" y="691" type="line"/>
      <point x="785" y="457" type="line"/>
      <point x="544" y="457" type="line"/>
      <point x="544" y="331" type="line"/>
    </contour>
    <contour>
      <point x="835" y="514" type="line"/>
      <point x="835" y="639" type="line"/>
      <point x="546" y="639" type="line"/>
      <point x="546" y="514" type="line"/>
    </contour>
    <contour>
      <point x="409" y="53" type="curve"/>
      <point x="441" y="-82" type="line"/>
      <point x="529" y="-63"/>
      <point x="638" y="-39"/>
      <point x="738" y="-15" type="curve"/>
      <point x="725" y="111" type="line"/>
      <point x="611" y="89"/>
      <point x="491" y="66"/>
    </contour>
    <contour>
      <point x="756" y="403" type="curve"/>
      <point x="627" y="386" type="line"/>
      <point x="665" y="156"/>
      <point x="727" y="-9"/>
      <point x="894" y="-94" type="curve"/>
      <point x="914" y="-55"/>
      <point x="956" y="2"/>
      <point x="987" y="30" type="curve"/>
      <point x="845" y="90"/>
      <point x="784" y="230"/>
    </contour>
    <contour>
      <point x="976" y="230" type="curve"/>
      <point x="875" y="329" type="line"/>
      <point x="836" y="289"/>
      <point x="768" y="235"/>
      <point x="722" y="207" type="curve"/>
      <point x="800" y="123" type="line"/>
      <point x="850" y="148"/>
      <point x="915" y="190"/>
    </contour>
    <contour>
      <point x="293" y="834" type="curve"/>
      <point x="160" y="860" type="line"/>
      <point x="134" y="765"/>
      <point x="77" y="668"/>
      <point x="11" y="609" type="curve"/>
      <point x="45" y="579"/>
      <point x="87" y="532"/>
      <point x="104" y="502" type="curve"/>
      <point x="182" y="574"/>
      <point x="255" y="702"/>
    </contour>
    <contour>
      <point x="431" y="629" type="line"/>
      <point x="431" y="767" type="line"/>
      <point x="166" y="767" type="line"/>
      <point x="142" y="629" type="line"/>
    </contour>
    <contour>
      <point x="416" y="447" type="line"/>
      <point x="416" y="576" type="line"/>
      <point x="93" y="576" type="line"/>
      <point x="93" y="447" type="line"/>
    </contour>
    <contour>
      <point x="437" y="241" type="line"/>
      <point x="437" y="370" type="line"/>
      <point x="50" y="370" type="line"/>
      <point x="50" y="241" type="line"/>
    </contour>
    <contour>
      <point x="312" y="60" type="line"/>
      <point x="312" y="561" type="line"/>
      <point x="174" y="561" type="line"/>
      <point x="174" y="10" type="line"/>
    </contour>
    <contour>
      <point x="97" y="35" type="curve"/>
      <point x="164" y="-97" type="line"/>
      <point x="248" y="-60"/>
      <point x="350" y="-12"/>
      <point x="429" y="28" type="curve"/>
      <point x="395" y="149" type="line"/>
      <point x="301" y="110"/>
      <point x="186" y="66"/>
    </contour>
  </outline>
</glyph>
<glyph name="uni952D" format="2">
  <advance width="1000" height="1000"/>
  <unicode hex="952D"/>
  <note>
cid42750
</note>
  <outline>
    <contour>
      <point x="936" y="402" type="line"/>
      <point x="936" y="527" type="line"/>
      <point x="445" y="527" type="line"/>
      <point x="445" y="402" type="line"/>
    </contour>
    <contour>
      <point x="915" y="174" type="line"/>
      <point x="915" y="298" type="line"/>
      <point x="676" y="298" type="line"/>
      <point x="676" y="174" type="line"/>
    </contour>
    <contour>
      <point x="762" y="669" type="line"/>
      <point x="762" y="854" type="line"/>
      <point x="612" y="854" type="line"/>
      <point x="612" y="669" type="line"/>
    </contour>
    <contour>
      <point x="759" y="-8" type="line"/>
      <point x="759" y="465" type="line"/>
      <point x="619" y="465" type="line"/>
      <point x="619" y="-8" type="line"/>
    </contour>
    <contour>
      <point x="963" y="542" type="line"/>
      <point x="963" y="740" type="line"/>
      <point x="403" y="740" type="line"/>
      <point x="403" y="542" type="line"/>
      <point x="536" y="542" type="line"/>
      <point x="536" y="622" type="line"/>
      <point x="824" y="622" type="line"/>
      <point x="824" y="542" type="line"/>
    </contour>
    <contour>
      <point x="583" y="359" type="curve"/>
      <point x="455" y="359" type="line"/>
      <point x="450" y="236"/>
      <point x="440" y="93"/>
      <point x="357" y="4" type="curve"/>
      <point x="390" y="-18"/>
      <point x="429" y="-65"/>
      <point x="449" y="-99" type="curve"/>
      <point x="555" y="17"/>
      <point x="575" y="195"/>
    </contour>
    <contour>
      <point x="566" y="220" type="curve"/>
      <point x="476" y="193" type="line"/>
      <point x="537" y="-42"/>
      <point x="651" y="-80"/>
      <point x="800" y="-80" type="curve" smooth="yes"/>
      <point x="909" y="-80" type="line"/>
      <point x="944" y="-80" type="line"/>
      <point x="950" y="-43"/>
      <point x="967" y="21"/>
      <point x="984" y="51" type="curve"/>
      <point x="941" y="49"/>
      <point x="841" y="49"/>
      <point x="806" y="49" type="curve" smooth="yes"/>
      <point x="704" y="49"/>
      <point x="612" y="67"/>
    </contour>
    <contour>
      <point x="283" y="834" type="curve"/>
      <point x="150" y="860" type="line"/>
      <point x="126" y="770"/>
      <point x="73" y="677"/>
      <point x="11" y="619" type="curve"/>
      <point x="45" y="589"/>
      <point x="87" y="542"/>
      <point x="104" y="512" type="curve"/>
      <point x="181" y="586"/>
      <point x="250" y="710"/>
    </contour>
    <contour>
      <point x="381" y="629" type="line"/>
      <point x="381" y="767" type="line"/>
      <point x="166" y="767" type="line"/>
      <point x="142" y="629" type="line"/>
    </contour>
    <contour>
      <point x="366" y="447" type="line"/>
      <point x="366" y="576" type="line"/>
      <point x="103" y="576" type="line"/>
      <point x="103" y="447" type="line"/>
    </contour>
    <contour>
      <point x="387" y="241" type="line"/>
      <point x="387" y="370" type="line"/>
      <point x="50" y="370" type="line"/>
      <point x="50" y="241" type="line"/>
    </contour>
    <contour>
      <point x="302" y="60" type="line"/>
      <point x="302" y="561" type="line"/>
      <point x="164" y="561" type="line"/>
      <point x="164" y="10" type="line"/>
    </contour>
    <contour>
      <point x="92" y="35" type="curve"/>
      <point x="159" y="-97" type="line"/>
      <point x="231" y="-65"/>
      <point x="321" y="-22"/>
      <point x="392" y="14" type="curve"/>
      <point x="358" y="135" type="line"/>
      <point x="270" y="100"/>
      <point x="168" y="62"/>
    </contour>
  </outline>
</glyph>
<glyph name="uni9547" format="2">
  <advance width="1000" height="1000"/>
  <unicode hex="9547"/>
  <note>
cid42776
</note>
  <outline>
    <contour>
      <point x="950" y="668" type="line"/>
      <point x="950" y="781" type="line"/>
      <point x="427" y="781" type="line"/>
      <point x="427" y="668" type="line"/>
    </contour>
    <contour>
      <point x="978" y="95" type="line"/>
      <point x="978" y="209" type="line"/>
      <point x="404" y="209" type="line"/>
      <point x="404" y="95" type="line"/>
    </contour>
    <contour>
      <point x="757" y="595" type="line"/>
      <point x="757" y="856" type="line"/>
      <point x="618" y="856" type="line"/>
      <point x="618" y="595" type="line"/>
    </contour>
    <contour>
      <point x="672" y="65" type="curve"/>
      <point x="540" y="112" type="line"/>
      <point x="499" y="69"/>
      <point x="426" y="29"/>
      <point x="355" y="3" type="curve"/>
      <point x="384" y="-21"/>
      <point x="432" y="-73"/>
      <point x="454" y="-100" type="curve"/>
      <point x="530" y="-63"/>
      <point x="619" y="1"/>
    </contour>
    <contour>
      <point x="830" y="118" type="curve"/>
      <point x="708" y="57" type="line"/>
      <point x="765" y="11"/>
      <point x="835" y="-55"/>
      <point x="867" y="-96" type="curve"/>
      <point x="991" y="-20" type="line"/>
      <point x="955" y="21"/>
      <point x="888" y="77"/>
    </contour>
    <contour>
      <point x="849" y="442" type="line"/>
      <point x="849" y="516" type="line"/>
      <point x="515" y="516" type="line"/>
      <point x="515" y="442" type="line"/>
    </contour>
    <contour>
      <point x="858" y="340" type="line"/>
      <point x="858" y="414" type="line"/>
      <point x="515" y="414" type="line"/>
      <point x="515" y="340" type="line"/>
    </contour>
    <contour>
      <point x="858" y="238" type="line"/>
      <point x="858" y="312" type="line"/>
      <point x="515" y="312" type="line"/>
      <point x="515" y="238" type="line"/>
    </contour>
    <contour>
      <point x="910" y="168" type="line"/>
      <point x="910" y="634" type="line"/>
      <point x="467" y="634" type="line"/>
      <point x="467" y="168" type="line"/>
      <point x="593" y="168" type="line"/>
      <point x="593" y="544" type="line"/>
      <point x="778" y="544" type="line"/>
      <point x="778" y="168" type="line"/>
    </contour>
    <contour>
      <point x="283" y="834" type="curve"/>
      <point x="150" y="860" type="line"/>
      <point x="126" y="770"/>
      <point x="73" y="677"/>
      <point x="11" y="619" type="curve"/>
      <point x="45" y="589"/>
      <point x="87" y="542"/>
      <point x="104" y="512" type="curve"/>
      <point x="181" y="586"/>
      <point x="250" y="710"/>
    </contour>
    <contour>
      <point x="406" y="629" type="line"/>
      <point x="406" y="767" type="line"/>
      <point x="166" y="767" type="line"/>
      <point x="142" y="629" type="line"/>
    </contour>
    <contour>
      <point x="391" y="447" type="line"/>
      <point x="391" y="576" type="line"/>
      <point x="103" y="576" type="line"/>
      <point x="103" y="447" type="line"/>
    </contour>
    <contour>
      <point x="407" y="241" type="line"/>
      <point x="407" y="370" type="line"/>
      <point x="50" y="370" type="line"/>
      <point x="50" y="241" type="line"/>
    </contour>
    <contour>
      <point x="301" y="60" type="line"/>
      <point x="301" y="561" type="line"/>
      <point x="169" y="561" type="line"/>
      <point x="169" y="10" type="line"/>
    </contour>
    <contour>
      <point x="92" y="35" type="curve"/>
      <point x="160" y="-95" type="line"/>
      <point x="234" y="-56"/>
      <point x="329" y="-5"/>
      <point x="406" y="38" type="curve"/>
      <point x="369" y="157" type="line"/>
      <point x="278" y="116"/>
      <point x="171" y="69"/>
    </contour>
  </outline>
</glyph>
<glyph name="uni957F" format="2">
  <advance width="1000"/>
  <unicode hex="957F"/>
  <note>
cid42842
</note>
  <outline>
    <contour>
      <point x="84" y="53" type="curve"/>
      <point x="118" y="-90" type="line"/>
      <point x="240" y="-73"/>
      <point x="402" y="-51"/>
      <point x="553" y="-27" type="curve"/>
      <point x="547" y="111" type="line"/>
      <point x="383" y="88"/>
      <point x="204" y="65"/>
    </contour>
    <contour>
      <point x="362" y="37" type="line"/>
      <point x="362" y="854" type="line"/>
      <point x="208" y="854" type="line"/>
      <point x="208" y="10" type="line"/>
    </contour>
    <contour>
      <point x="953" y="341" type="line"/>
      <point x="953" y="486" type="line"/>
      <point x="48" y="486" type="line"/>
      <point x="48" y="341" type="line"/>
    </contour>
    <contour>
      <point x="870" y="774" type="curve"/>
      <point x="722" y="839" type="line"/>
      <point x="657" y="756"/>
      <point x="533" y="680"/>
      <point x="400" y="641" type="curve"/>
      <point x="435" y="609"/>
      <point x="482" y="555"/>
      <point x="506" y="520" type="curve"/>
      <point x="635" y="567"/>
      <point x="776" y="665"/>
    </contour>
    <contour>
      <point x="589" y="409" type="curve"/>
      <point x="455" y="378" type="line"/>
      <point x="518" y="133"/>
      <point x="673" y="-37"/>
      <point x="886" y="-96" type="curve"/>
      <point x="905" y="-57"/>
      <point x="946" y="4"/>
      <point x="978" y="35" type="curve"/>
      <point x="777" y="79"/>
      <point x="638" y="213"/>
    </contour>
  </outline>
</glyph>
<glyph name="uni95F4" format="2">
  <advance width="1000" height="1000"/>
  <unicode hex="95F4"/>
  <note>
cid43021
</note>
  <outline>
    <contour>
      <point x="207" y="-93" type="line"/>
      <point x="207" y="605" type="line"/>
      <point x="60" y="605" type="line"/>
      <point x="60" y="-93" type="line"/>
    </contour>
    <contour>
      <point x="189" y="852" type="curve"/>
      <point x="74" y="782" type="line"/>
      <point x="119" y="732"/>
      <point x="170" y="663"/>
      <point x="190" y="618" type="curve"/>
      <point x="313" y="696" type="line"/>
      <point x="290" y="743"/>
      <point x="235" y="807"/>
    </contour>
    <contour>
      <point x="882" y="674" type="line"/>
      <point x="882" y="809" type="line"/>
      <point x="332" y="809" type="line"/>
      <point x="332" y="674" type="line"/>
    </contour>
    <contour>
      <point x="940" y="63" type="curve" smooth="yes"/>
      <point x="940" y="809" type="line"/>
      <point x="791" y="809" type="line"/>
      <point x="791" y="64" type="line" smooth="yes"/>
      <point x="791" y="46"/>
      <point x="785" y="39"/>
      <point x="766" y="39" type="curve" smooth="yes"/>
      <point x="750" y="38"/>
      <point x="687" y="38"/>
      <point x="642" y="41" type="curve"/>
      <point x="661" y="6"/>
      <point x="681" y="-55"/>
      <point x="687" y="-93" type="curve"/>
      <point x="774" y="-94"/>
      <point x="835" y="-91"/>
      <point x="879" y="-69" type="curve" smooth="yes"/>
      <point x="924" y="-47"/>
      <point x="940" y="-12"/>
    </contour>
    <contour>
      <point x="623" y="276" type="line"/>
      <point x="623" y="396" type="line"/>
      <point x="366" y="396" type="line"/>
      <point x="366" y="276" type="line"/>
    </contour>
    <contour>
      <point x="692" y="95" type="line"/>
      <point x="692" y="577" type="line"/>
      <point x="357" y="577" type="line"/>
      <point x="357" y="452" type="line"/>
      <point x="556" y="452" type="line"/>
      <point x="556" y="220" type="line"/>
      <point x="357" y="220" type="line"/>
      <point x="357" y="95" type="line"/>
    </contour>
    <contour>
      <point x="429" y="41" type="line"/>
      <point x="429" y="577" type="line"/>
      <point x="298" y="577" type="line"/>
      <point x="298" y="41" type="line"/>
    </contour>
  </outline>
</glyph>
